<?xml version="1.0" standalone="no"?>
<!DOCTYPE svg PUBLIC "-//W3C//DTD SVG 20010904//EN"
 "http://www.w3.org/TR/2001/REC-SVG-20010904/DTD/svg10.dtd">
<svg version="1.0" xmlns="http://www.w3.org/2000/svg"
 width="642.000000pt" height="423.000000pt" viewBox="0 0 642.000000 423.000000"
 preserveAspectRatio="xMidYMid meet">

<g transform="translate(0.000000,423.000000) scale(0.100000,-0.100000)"
fill="#000000" stroke="none">
<path d="M81 4195 l-64 -21 105 -26 c57 -15 129 -38 159 -51 30 -13 88 -35
129 -47 41 -12 103 -36 137 -51 34 -16 70 -29 80 -29 10 0 35 -9 56 -20 21
-11 42 -18 47 -15 5 3 11 1 15 -5 3 -5 19 -10 35 -10 16 0 31 -4 35 -9 3 -5
20 -13 37 -17 18 -3 41 -12 51 -18 15 -8 21 -8 24 2 3 8 9 10 16 3 25 -20 122
-52 125 -41 3 8 8 8 18 -1 11 -9 14 -8 14 5 0 15 2 15 25 0 24 -15 25 -15 25
2 1 18 1 18 15 0 11 -15 18 -16 28 -8 7 6 30 9 50 7 22 -3 37 -1 37 6 0 5 5 7
11 4 11 -7 42 -13 101 -19 30 -3 36 -1 31 13 -3 9 -11 22 -16 29 -5 7 -7 15
-4 18 3 3 12 -7 20 -23 8 -15 27 -39 42 -53 21 -20 28 -22 35 -10 5 8 4 22 -2
33 -7 15 -7 18 2 12 9 -6 10 -1 4 16 -4 13 -8 32 -9 41 -2 30 -14 32 -39 9
-24 -22 -40 -23 -101 -3 -50 17 -298 81 -330 86 -17 3 -77 19 -135 36 -75 22
-135 32 -210 36 -109 6 -194 27 -289 71 -44 21 -141 48 -231 66 -8 2 -44 -6
-79 -18z"/>
<path d="M2878 4183 c-42 -4 -47 -7 -46 -26 3 -31 -33 -89 -51 -82 -16 6 -53
-23 -46 -36 3 -4 1 -10 -5 -14 -21 -13 -7 -117 15 -109 17 7 28 -66 16 -100
-7 -17 -7 -26 1 -28 8 -3 7 -19 -2 -55 -7 -28 -10 -59 -6 -69 7 -18 9 -17 21
6 8 14 14 31 15 38 0 7 7 20 15 28 8 9 15 24 15 35 0 10 5 20 10 20 20 3 25 4
38 12 7 5 10 12 7 17 -3 5 -1 11 5 15 6 3 15 -4 20 -17 8 -18 8 -16 4 15 -9
54 13 47 27 -9 8 -32 14 -42 20 -32 7 9 9 8 7 -7 -3 -37 2 -56 12 -50 16 10
11 -7 -6 -19 -23 -17 -29 -85 -10 -121 l16 -30 0 37 c0 20 5 40 12 44 6 4 8 3
5 -4 -4 -5 -3 -21 2 -34 l10 -23 1 25 c1 36 11 70 21 70 5 0 9 -8 9 -17 0 -15
2 -16 10 -3 5 8 10 24 10 35 0 39 31 103 48 100 10 -2 22 -4 27 -4 6 -1 3 -5
-5 -11 -8 -5 -11 -12 -7 -16 9 -10 17 -1 22 24 2 11 10 47 18 79 22 83 39 194
32 202 -4 3 -12 6 -18 6 -8 0 -11 18 -10 52 l2 52 -83 0 c-45 0 -89 3 -98 6
-10 4 -18 -4 -25 -27 l-11 -33 -1 33 c-1 17 -4 31 -8 30 -5 -1 -29 -3 -55 -5z
m106 -55 c-3 -18 -7 -38 -9 -45 -2 -6 2 -16 9 -22 17 -15 8 -59 -14 -71 -13
-7 -21 -5 -30 5 -7 9 -10 19 -6 22 4 4 11 1 16 -7 7 -11 9 -4 6 20 -5 38 13
130 25 130 4 0 5 -15 3 -32z m-137 -205 c-3 -10 -5 -4 -5 12 0 17 2 24 5 18 2
-7 2 -21 0 -30z m292 -54 c-13 -34 -25 -57 -27 -50 -4 13 38 124 45 117 3 -2
-6 -32 -18 -67z m-289 -3 c0 -3 -4 -8 -10 -11 -5 -3 -10 -1 -10 4 0 6 5 11 10
11 6 0 10 -2 10 -4z m115 -222 c-12 -24 -15 -25 -15 -9 0 11 3 31 7 44 5 19 8
20 14 8 6 -9 3 -26 -6 -43z"/>
<path d="M3260 4164 c0 -8 5 -12 10 -9 6 3 10 10 10 16 0 5 -4 9 -10 9 -5 0
-10 -7 -10 -16z"/>
<path d="M3300 4162 c0 -2 6 -10 14 -17 12 -12 15 -12 19 5 3 14 0 18 -14 17
-11 -1 -19 -3 -19 -5z"/>
<path d="M3347 4143 c-3 -16 -2 -44 2 -63 l8 -35 13 33 c19 50 23 31 6 -27
-10 -33 -11 -53 -5 -57 6 -3 8 -13 5 -21 -3 -8 -1 -11 4 -8 10 6 16 -36 12
-80 -7 -71 0 -120 17 -137 12 -11 18 -26 14 -40 -4 -22 -4 -22 11 -4 9 11 16
25 16 32 0 7 5 16 10 19 6 4 1 -17 -10 -46 -11 -29 -17 -55 -15 -57 7 -8 34
62 38 100 2 19 8 41 12 48 4 7 8 26 7 43 0 17 6 40 14 51 14 20 14 20 14 -7 0
-28 15 -37 23 -14 2 6 7 9 11 6 3 -3 -7 -21 -24 -40 -17 -19 -29 -43 -28 -54
2 -23 -7 -55 -28 -103 -8 -18 -13 -36 -9 -41 3 -5 -1 -11 -7 -14 -10 -3 -10
-7 0 -20 8 -9 10 -22 6 -29 -6 -10 -4 -10 9 0 9 8 21 29 27 48 7 20 14 33 17
30 3 -3 0 -19 -7 -35 -6 -16 -10 -38 -8 -48 3 -12 9 -4 18 25 7 23 17 42 22
42 11 0 11 -2 -8 -45 -14 -34 -14 -39 1 -62 11 -16 16 -41 14 -71 -3 -53 10
-63 28 -23 11 25 11 24 8 -13 -3 -21 -7 -47 -11 -58 -13 -42 16 -6 51 63 50
98 51 101 66 132 7 16 15 24 17 18 2 -6 -6 -28 -18 -48 -11 -20 -19 -42 -16
-49 3 -7 -4 -25 -16 -39 -15 -19 -19 -35 -15 -60 4 -26 1 -38 -17 -54 -12 -12
-25 -19 -28 -16 -3 4 -16 -10 -28 -29 -28 -46 -34 -46 -15 0 19 46 19 50 -2
33 -15 -13 -15 -12 -4 9 8 15 8 22 1 22 -6 0 -8 5 -5 10 3 6 4 10 2 10 -13 0
-117 -186 -117 -210 0 -8 -6 -26 -13 -40 -8 -15 -16 -43 -20 -64 -5 -30 -3
-37 8 -32 8 3 17 0 21 -6 4 -7 3 -8 -4 -4 -7 4 -12 4 -13 -1 0 -4 -2 -22 -3
-40 -2 -18 1 -31 6 -30 6 1 13 -4 15 -10 3 -7 0 -13 -6 -13 -16 0 -13 -42 4
-64 8 -11 15 -14 15 -7 0 7 4 10 9 6 6 -3 13 1 18 8 4 8 19 20 33 27 23 12 23
14 6 20 -17 5 -14 10 18 29 25 16 35 28 31 39 -3 8 -2 18 3 21 5 3 26 25 47
49 26 29 35 46 28 53 -7 7 -16 5 -27 -6 -9 -9 -16 -13 -16 -8 0 5 9 16 20 26
11 9 17 23 14 32 -4 8 -2 21 3 28 13 17 14 59 1 51 -6 -4 -9 -3 -6 2 22 49 34
70 43 77 6 4 5 10 -5 17 -12 7 -12 12 -2 22 6 6 12 27 12 45 0 36 25 83 44 83
6 0 4 -5 -4 -10 -13 -8 -13 -10 2 -10 9 0 18 -8 20 -17 2 -11 13 5 26 39 12
32 19 66 16 75 -5 17 -5 17 9 0 14 -16 15 -16 21 5 10 38 7 100 -4 93 -6 -4
-8 -16 -4 -27 4 -14 2 -18 -5 -14 -6 4 -11 3 -11 -1 0 -5 -7 -18 -15 -29 -14
-18 -15 -17 -10 11 6 30 6 30 -12 -5 l-17 -35 -4 37 c-2 20 6 64 17 98 22 67
20 90 -7 63 -16 -16 -17 -15 -20 11 -2 15 0 35 4 44 4 10 6 23 5 30 -1 6 2 12
6 12 5 0 9 18 10 41 1 22 7 47 13 54 8 9 8 15 0 20 -6 4 -8 20 -4 42 5 26 3
34 -5 29 -7 -5 -9 -1 -4 9 3 10 0 21 -8 27 -11 8 -11 9 2 5 11 -4 21 4 29 21
11 22 14 24 17 10 3 -10 11 -18 19 -18 17 0 19 -16 2 -23 -10 -4 -10 -6 -1 -6
12 -1 63 44 63 56 0 3 -6 3 -14 0 -7 -3 -17 -2 -22 3 -5 5 -38 11 -74 14 -36
4 -135 15 -220 26 -85 10 -160 19 -166 20 -6 0 -14 -12 -17 -27z m196 -162
c-7 -27 -20 -19 -17 11 1 13 3 30 4 38 1 10 4 7 10 -7 5 -11 6 -30 3 -42z
m174 -23 c-3 -8 -6 -5 -6 6 -1 11 2 17 5 13 3 -3 4 -12 1 -19z m-63 -196 c-4
-9 -9 -28 -11 -42 -1 -14 -3 -30 -5 -37 -1 -7 -7 -14 -14 -17 -20 -8 -22 40
-3 65 10 13 19 32 19 41 0 9 3 25 7 35 7 16 8 15 11 -5 2 -13 0 -31 -4 -40z
m-124 28 c0 -5 -5 -10 -11 -10 -5 0 -7 5 -4 10 3 6 8 10 11 10 2 0 4 -4 4 -10z
m234 -255 c3 -8 2 -14 -2 -14 -21 3 -31 -3 -34 -21 -2 -13 -7 -17 -16 -11 -10
6 -8 14 10 34 27 31 34 33 42 12z m-261 -270 c-3 -9 -8 -14 -10 -11 -3 3 -2 9
2 15 9 16 15 13 8 -4z"/>
<path d="M2568 4148 c9 -9 15 -9 24 0 9 9 7 12 -12 12 -19 0 -21 -3 -12 -12z"/>
<path d="M2453 4143 c-28 -4 -33 -9 -36 -36 -8 -56 -7 -97 3 -123 7 -17 7 -23
0 -19 -6 3 -10 1 -10 -4 0 -6 7 -11 15 -11 8 0 15 -5 15 -12 0 -6 3 -9 6 -5 3
3 8 30 10 59 2 29 11 71 19 93 l16 40 -5 -47 c-3 -26 -1 -50 4 -53 6 -3 11 0
12 7 2 21 5 32 11 48 3 8 8 27 11 43 7 29 6 29 -71 20z"/>
<path d="M2372 4108 c2 -11 -3 -23 -9 -25 -8 -3 -13 4 -13 16 0 12 -6 21 -15
21 -8 0 -15 -3 -15 -8 0 -4 -17 -6 -37 -4 -59 4 -65 -5 -68 -104 -4 -124 -4
-124 -15 -124 -5 0 -8 25 -7 55 3 56 -8 64 -15 10 l-4 -30 -11 25 c-12 25 -12
25 -12 -7 -1 -20 4 -32 11 -30 7 1 12 -16 13 -48 1 -28 8 -62 15 -75 12 -23
12 -24 -3 -11 -12 9 -17 10 -17 2 0 -7 -4 -9 -10 -6 -6 4 -10 -6 -10 -21 0
-30 -15 -23 -23 11 -3 12 -5 7 -6 -15 l-2 -35 -15 25 -15 25 6 -27 c3 -16 1
-28 -5 -28 -5 0 -10 5 -10 11 0 6 -6 9 -14 6 -8 -3 -17 -1 -20 6 -3 8 -5 8 -5
-2 -1 -7 7 -21 17 -30 10 -9 21 -27 25 -41 5 -22 5 -23 -7 -7 -16 21 -27 22
-20 2 5 -11 2 -13 -12 -8 -12 4 -15 3 -10 -5 4 -7 2 -12 -3 -12 -6 0 -11 9
-11 19 0 11 -5 23 -10 26 -7 4 -9 -3 -5 -22 6 -27 6 -27 -10 -8 -17 20 -17 20
-10 -5 4 -14 18 -35 31 -48 13 -13 24 -31 24 -42 0 -25 10 -50 21 -50 4 0 6 8
2 18 -11 33 28 -27 53 -83 20 -42 23 -59 15 -74 -14 -26 -14 -40 0 -21 9 12
10 12 5 -4 -4 -11 4 -40 20 -70 31 -61 49 -82 39 -46 -7 24 -7 24 9 5 18 -24
21 -13 4 18 -7 12 -14 42 -15 67 -2 25 -8 47 -13 48 -6 2 -10 10 -10 18 0 9
-4 12 -10 9 -5 -3 -10 -1 -10 4 0 32 59 -25 61 -58 0 -9 3 -11 5 -4 3 7 -1 22
-8 35 -13 23 -15 29 -17 59 0 9 -9 19 -18 23 -10 3 -24 9 -31 12 -11 5 -12 2
-3 -14 6 -11 11 -24 11 -29 -2 -26 -39 68 -39 97 l0 35 13 -35 c6 -19 17 -34
24 -32 7 1 12 -2 12 -7 0 -5 7 -11 15 -15 13 -4 13 -2 5 14 -18 33 -11 35 21
4 27 -24 30 -26 20 -6 -7 13 -8 22 -2 22 6 0 7 15 4 37 -4 26 -3 34 5 29 7 -4
12 -1 12 8 0 9 5 16 11 16 6 0 9 -6 7 -12 -3 -7 3 -20 12 -29 16 -15 17 -11
14 55 -3 65 -3 68 8 36 8 -24 13 -30 15 -17 3 9 8 15 11 13 4 -2 8 33 10 77 1
45 8 111 14 147 6 36 12 75 12 88 1 12 4 22 8 22 7 0 24 88 20 104 -2 4 3 15
10 24 10 11 10 16 1 19 -7 2 -9 11 -6 19 3 8 0 14 -7 14 -6 0 -10 -10 -8 -22z
m-102 -42 c0 -11 -19 -15 -25 -6 -3 5 1 10 9 10 9 0 16 -2 16 -4z m67 -58 c-3
-8 -6 -5 -6 6 -1 11 2 17 5 13 3 -3 4 -12 1 -19z m-87 -54 c0 -30 -3 -54 -8
-54 -4 0 -7 27 -7 59 0 33 3 57 7 55 5 -3 8 -30 8 -60z m86 -40 c-9 -34 -28
-30 -20 4 4 19 3 23 -4 13 -8 -10 -10 -11 -14 -1 -2 7 5 23 16 34 l21 21 3
-24 c2 -13 1 -34 -2 -47z m-36 -35 c0 -11 -4 -18 -10 -14 -5 3 -7 12 -3 20 7
21 13 19 13 -6z m-95 -18 c3 -5 1 -12 -5 -16 -5 -3 -10 1 -10 9 0 18 6 21 15
7z m-25 -560 c0 -18 -4 -14 -24 29 l-17 35 20 -25 c11 -14 21 -31 21 -39z"/>
<path d="M3913 4075 c2 -14 7 -24 13 -23 5 1 8 9 7 18 -2 9 0 10 3 3 3 -7 12
-13 19 -13 11 0 10 -12 -6 -57 -23 -67 -20 -80 6 -23 10 22 22 40 27 40 4 0 8
7 8 15 0 8 5 15 10 15 12 0 13 -27 1 -34 -23 -14 -40 -204 -19 -218 10 -7 10
-11 1 -15 -14 -5 -18 -43 -5 -43 9 0 54 75 62 103 3 10 9 18 13 17 5 -1 15 7
23 17 13 17 14 17 7 -2 -4 -11 -17 -35 -30 -54 -13 -19 -23 -42 -23 -51 0 -10
-8 -28 -19 -41 -10 -13 -26 -40 -36 -59 -18 -35 -18 -35 2 -17 20 17 20 17 17
-10 -2 -15 -1 -20 2 -10 3 9 9 17 13 17 16 0 20 -13 10 -31 -6 -11 -6 -19 0
-19 11 0 21 24 21 51 0 11 -4 17 -10 14 -12 -8 -2 20 22 60 21 36 24 19 3 -21
-8 -16 -11 -31 -6 -34 4 -3 8 -12 8 -20 0 -8 3 -25 7 -36 5 -18 1 -24 -24 -33
-26 -9 -29 -13 -18 -25 7 -8 15 -12 17 -10 2 2 10 -1 16 -6 14 -11 45 -3 45
11 0 5 6 9 13 9 7 0 27 14 45 31 21 21 37 29 50 25 13 -5 22 0 29 17 6 12 26
34 46 47 40 27 70 67 43 57 -26 -10 -20 37 9 71 22 26 23 31 8 36 -16 7 -62
-36 -63 -59 0 -5 -5 -3 -10 5 -9 13 -10 13 -11 0 -1 -8 0 -25 1 -37 1 -13 -3
-23 -9 -23 -22 0 -5 73 22 96 15 13 27 27 27 33 0 5 -19 21 -42 34 -24 14 -56
37 -72 51 -36 32 -39 32 -61 4 -15 -21 -15 -20 1 6 16 29 16 30 -8 50 -84 71
-128 94 -181 95 -24 1 -27 -2 -24 -24z m83 -251 c-4 -9 -9 -15 -11 -12 -3 3
-3 13 1 22 4 9 9 15 11 12 3 -3 3 -13 -1 -22z m114 -184 c0 -5 -2 -10 -4 -10
-3 0 -8 5 -11 10 -3 6 -1 10 4 10 6 0 11 -4 11 -10z"/>
<path d="M2100 4073 c0 -14 19 -38 25 -32 8 8 -5 39 -16 39 -5 0 -9 -3 -9 -7z"/>
<path d="M1934 4046 c-79 -16 -100 -24 -97 -36 4 -12 3 -12 -5 -1 -7 9 -21 11
-51 6 l-41 -7 17 -26 c34 -52 43 -67 59 -104 17 -40 36 -52 27 -18 -3 11 -1
20 5 20 6 0 13 -8 15 -17 3 -10 5 0 6 22 1 49 20 35 27 -20 4 -33 23 -65 38
-65 12 0 5 28 -8 33 -8 3 -17 27 -21 56 -4 28 -11 53 -16 57 -5 3 -9 10 -9 16
0 7 5 6 15 -2 8 -6 19 -9 25 -5 6 4 13 -6 16 -24 7 -36 24 -42 24 -9 0 21 0
21 15 2 14 -19 14 -18 15 4 0 12 4 30 9 40 4 9 16 34 26 54 l18 37 18 -22 18
-22 1 23 c0 13 -4 20 -10 17 -5 -3 -10 -1 -10 4 0 14 -4 13 -126 -13z m33 -58
c-3 -8 -6 -5 -6 6 -1 11 2 17 5 13 3 -3 4 -12 1 -19z m-97 -46 c0 -15 -2 -15
-10 -2 -13 20 -13 33 0 25 6 -3 10 -14 10 -23z"/>
<path d="M66 4016 c7 -18 13 -20 34 -6 9 6 10 10 3 10 -6 0 -19 3 -27 6 -12 5
-15 2 -10 -10z"/>
<path d="M2051 4004 c0 -11 3 -14 6 -6 3 7 2 16 -1 19 -3 4 -6 -2 -5 -13z"/>
<path d="M2110 4015 c0 -5 5 -17 10 -25 5 -8 10 -10 10 -5 0 6 -5 17 -10 25
-5 8 -10 11 -10 5z"/>
<path d="M2153 4000 c1 -11 5 -20 9 -20 11 0 10 28 -1 35 -6 3 -9 -4 -8 -15z"/>
<path d="M2491 3994 c0 -11 3 -14 6 -6 3 7 2 16 -1 19 -3 4 -6 -2 -5 -13z"/>
<path d="M1690 3992 c0 -2 23 -27 50 -55 28 -28 50 -48 50 -44 0 14 -38 83
-52 94 -13 10 -48 14 -48 5z"/>
<path d="M1620 3980 c-12 -8 -12 -13 2 -42 l17 -33 0 34 c1 29 3 32 16 21 8
-7 15 -18 15 -25 0 -7 9 -24 21 -39 11 -14 18 -34 16 -44 -4 -13 -5 -12 -6 5
0 12 -6 25 -12 29 -16 9 -29 -17 -22 -43 7 -29 -4 -29 -36 -1 -14 13 1 -6 34
-40 33 -34 65 -60 72 -57 8 2 13 -3 13 -14 0 -9 11 -28 25 -41 14 -13 25 -20
25 -16 0 5 7 3 15 -4 8 -7 12 -16 9 -21 -3 -5 0 -9 5 -9 21 0 11 25 -19 50
-16 14 -30 32 -30 40 1 11 7 8 21 -9 11 -13 22 -21 26 -18 3 4 1 13 -5 20 -7
8 -9 17 -6 20 4 3 -4 23 -16 44 -12 21 -15 29 -6 19 17 -22 56 -29 56 -12 0
19 -156 179 -168 172 -5 -3 -12 1 -16 9 -6 17 -24 19 -46 5z m120 -120 c0 -5
-2 -10 -4 -10 -3 0 -8 5 -11 10 -3 6 -1 10 4 10 6 0 11 -4 11 -10z"/>
<path d="M2386 3960 c-4 -19 -9 -55 -10 -80 l-3 -45 4 43 c3 28 8 42 16 39 7
-2 11 -13 9 -23 -1 -10 -4 -44 -7 -75 -3 -51 -2 -56 15 -52 13 4 20 18 24 51
7 53 -4 113 -19 112 -6 0 -12 14 -15 32 l-6 33 -8 -35z"/>
<path d="M119 3937 c17 -25 64 -97 105 -161 42 -66 77 -112 81 -106 4 6 4 14
1 17 -7 7 13 33 25 33 5 0 9 -7 9 -16 0 -8 -4 -12 -10 -9 -5 3 -10 -1 -10 -9
0 -32 89 -5 118 35 7 11 19 19 27 19 8 0 16 4 20 9 3 6 -6 7 -22 3 -16 -4 -46
-6 -68 -4 -22 1 -57 3 -77 3 -45 1 -42 9 11 34 48 21 44 35 -9 35 -62 0 -55
17 10 25 100 12 89 28 -27 40 -63 7 -72 12 -53 31 19 19 -46 55 -107 60 l-55
5 31 -44z m306 -207 c-3 -5 -12 -10 -18 -10 -7 0 -6 4 3 10 19 12 23 12 15 0z"/>
<path d="M1585 3970 c3 -5 8 -10 11 -10 2 0 4 5 4 10 0 6 -5 10 -11 10 -5 0
-7 -4 -4 -10z"/>
<path d="M1532 3945 c0 -16 2 -22 5 -12 2 9 2 23 0 30 -3 6 -5 -1 -5 -18z"/>
<path d="M1557 3950 c3 -11 9 -20 13 -20 5 0 6 9 3 20 -3 11 -9 20 -13 20 -5
0 -6 -9 -3 -20z"/>
<path d="M1942 3860 c0 -14 2 -19 5 -12 2 6 2 18 0 25 -3 6 -5 1 -5 -13z"/>
<path d="M2148 3833 c5 -51 8 -60 18 -51 8 8 -7 98 -16 98 -4 0 -5 -21 -2 -47z"/>
<path d="M2347 3800 c-6 -45 -5 -140 1 -120 2 5 8 8 13 4 10 -6 10 86 0 131
-7 29 -8 28 -14 -15z"/>
<path d="M1596 3811 c-10 -16 6 -72 19 -67 7 2 16 -5 19 -17 8 -31 7 -37 -4
-37 -5 0 -10 9 -10 21 0 11 -4 18 -9 14 -15 -9 -4 -85 15 -106 9 -10 12 -19 7
-19 -6 0 -18 10 -26 23 l-16 22 0 -27 c-1 -15 3 -29 8 -33 5 -3 12 -18 16 -34
3 -16 14 -32 23 -35 9 -3 22 -9 29 -12 8 -3 10 2 6 18 l-5 23 16 -23 c10 -12
15 -26 12 -31 -3 -4 6 -19 21 -32 20 -19 27 -21 31 -10 3 10 10 3 21 -19 22
-46 87 -98 103 -82 10 10 16 8 28 -8 16 -21 16 -21 15 2 -1 13 -18 48 -38 78
-20 30 -37 58 -37 62 0 19 31 5 44 -19 8 -16 16 -23 16 -18 0 6 8 -1 16 -15
l15 -25 -5 25 -5 25 19 -25 c11 -14 20 -20 20 -14 0 9 -43 71 -65 92 -1 1 0
-10 2 -25 5 -26 4 -26 -14 7 -33 60 -46 78 -57 76 -6 -2 -8 -1 -3 1 12 7 7 27
-12 51 -24 27 -31 28 -24 2 3 -11 0 -20 -6 -20 -5 0 -8 -8 -5 -17 5 -17 5 -17
-6 0 -6 9 -9 21 -6 25 2 4 -2 16 -10 27 -10 14 -14 15 -15 4 0 -8 -5 -1 -10
16 -5 19 -5 31 2 36 7 4 -15 32 -52 68 -65 62 -74 68 -83 52z m80 -241 c8 0
14 -4 14 -10 0 -5 -7 -10 -15 -10 -8 0 -15 2 -15 4 0 2 -2 10 -3 18 -2 7 -2
10 0 6 3 -5 11 -8 19 -8z m98 -22 c32 -37 51 -78 35 -78 -5 0 -12 7 -15 15 -4
8 -10 13 -14 10 -7 -4 -50 66 -50 80 0 13 18 2 44 -27z m-124 2 c0 -5 -2 -10
-4 -10 -3 0 -8 5 -11 10 -3 6 -1 10 4 10 6 0 11 -4 11 -10z m190 -31 c0 -6 -4
-7 -10 -4 -5 3 -10 11 -10 16 0 6 5 7 10 4 6 -3 10 -11 10 -16z m-93 -14 c9
-24 -1 -27 -15 -5 -8 13 -8 20 -2 20 6 0 13 -7 17 -15z"/>
<path d="M1950 3811 c0 -6 4 -11 9 -11 5 0 12 -10 14 -22 4 -22 4 -22 6 -2 0
12 -6 27 -14 34 -10 9 -15 9 -15 1z"/>
<path d="M1890 3781 c0 -6 4 -13 10 -16 6 -3 7 1 4 9 -7 18 -14 21 -14 7z"/>
<path d="M2461 3757 c-1 -25 -5 -36 -12 -31 -13 8 -4 -43 17 -95 8 -18 14 -53
14 -78 0 -27 4 -42 10 -38 6 3 10 21 10 38 1 26 2 29 11 15 5 -10 9 -28 7 -40
-4 -29 16 -36 20 -8 2 11 8 20 14 20 6 0 8 -9 4 -22 -13 -40 -37 -181 -32
-185 2 -3 7 5 11 16 3 12 10 21 15 21 12 0 2 -48 -17 -76 -9 -14 -13 -27 -10
-30 3 -3 13 6 22 20 10 14 24 26 32 26 9 0 12 6 9 18 -3 9 5 49 19 87 27 78
31 117 13 137 -7 7 -13 28 -12 46 1 40 14 56 14 17 0 -16 3 -26 6 -22 9 8 -5
79 -14 73 -4 -2 -8 10 -8 27 -2 58 -8 73 -26 74 -10 1 -18 -3 -18 -9 0 -7 -5
-6 -15 2 -19 16 -45 -9 -45 -44 0 -14 -4 -26 -10 -26 -5 0 -6 7 -3 17 5 12 3
14 -7 8 -10 -6 -12 -4 -7 8 3 8 2 28 -3 44 -8 27 -8 27 -9 -10z m129 -37 c0
-5 -5 -10 -11 -10 -5 0 -7 5 -4 10 3 6 8 10 11 10 2 0 4 -4 4 -10z m-23 -162
c-3 -8 -6 -5 -6 6 -1 11 2 17 5 13 3 -3 4 -12 1 -19z m53 -25 c0 -5 -5 -15
-10 -23 -8 -12 -10 -11 -10 8 0 12 5 22 10 22 6 0 10 -3 10 -7z m-27 -58 c-3
-9 -8 -14 -10 -11 -3 3 -2 9 2 15 9 16 15 13 8 -4z m-20 -45 c-3 -12 -8 -19
-11 -16 -5 6 5 36 12 36 2 0 2 -9 -1 -20z"/>
<path d="M4447 3765 c3 -8 1 -15 -5 -15 -5 0 -7 -11 -4 -25 5 -29 22 -24 23 8
0 12 3 16 6 9 2 -6 9 -10 14 -6 15 9 10 20 -16 32 -20 9 -23 9 -18 -3z"/>
<path d="M2919 3764 c-1 -10 -6 -47 -14 -86 -2 -16 0 -28 5 -28 10 0 25 108
16 117 -3 4 -6 2 -7 -3z"/>
<path d="M2836 3743 c-6 -14 -5 -15 5 -6 7 7 10 15 7 18 -3 3 -9 -2 -12 -12z"/>
<path d="M3184 3735 c-4 -16 -11 -22 -22 -18 -13 5 -14 -1 -9 -42 7 -46 -10
-175 -22 -173 -25 2 -48 -4 -50 -14 -1 -7 -4 -37 -7 -65 -3 -29 -10 -50 -15
-47 -12 7 -12 -117 0 -135 7 -11 13 -6 26 18 9 18 19 30 22 27 3 -3 0 -12 -6
-20 -7 -8 -11 -25 -9 -38 4 -22 5 -22 12 -3 4 11 11 27 16 36 4 8 6 29 4 45
-2 17 -1 21 3 9 4 -15 11 -3 24 44 11 39 15 70 10 79 -9 16 -3 92 9 105 3 4 5
-16 3 -45 l-2 -53 14 35 15 35 -6 -42 c-3 -24 -2 -43 4 -43 10 0 32 44 32 66
0 9 8 23 17 32 15 16 16 15 9 -13 l-7 -30 20 22 c12 12 21 30 21 40 0 10 7 27
16 38 13 18 14 17 8 -13 -4 -18 -2 -32 3 -32 5 0 8 -13 5 -30 -2 -16 -2 -30 2
-30 9 0 44 81 50 115 3 17 7 40 10 53 3 12 3 22 1 22 -8 0 -34 -57 -39 -85 -9
-46 -19 -43 -13 4 3 25 2 39 -2 32 -6 -9 -10 -7 -13 7 -5 16 -1 20 13 17 13
-3 17 0 12 8 -4 6 -10 27 -13 47 l-7 35 -11 -27 c-12 -29 -26 -40 -16 -13 5
11 2 13 -10 9 -10 -4 -16 -1 -16 9 0 10 -7 15 -20 12 -17 -3 -24 4 -22 25 0 3
-8 7 -19 7 -12 1 -21 -6 -25 -22z m99 -150 c-3 -9 -8 -14 -10 -11 -3 3 -2 9 2
15 9 16 15 13 8 -4z m-186 -252 c-3 -10 -5 -2 -5 17 0 19 2 27 5 18 2 -10 2
-26 0 -35z"/>
<path d="M2873 3717 c-7 -16 -13 -37 -13 -48 0 -11 -7 -31 -16 -44 -9 -13 -13
-29 -9 -34 4 -7 -1 -8 -12 -4 -10 3 -15 3 -11 -2 4 -4 2 -17 -4 -28 -6 -11
-10 -41 -10 -66 1 -34 -1 -42 -9 -31 -8 12 -9 11 -6 -5 2 -11 9 -19 15 -18 13
3 14 -9 2 -47 l-7 -25 -8 28 c-13 48 -25 10 -25 -81 0 -60 -3 -81 -12 -76 -7
4 -8 3 -4 -4 4 -6 2 -21 -4 -33 -7 -11 -9 -23 -6 -26 3 -3 9 5 14 17 6 15 11
19 16 12 23 -37 46 19 51 122 6 116 12 157 25 191 11 27 13 28 19 10 7 -16 9
-14 14 14 6 30 9 32 24 20 16 -12 17 -12 6 1 -7 9 -13 54 -15 100 -3 77 -4 82
-15 57z m-96 -489 c-3 -8 -6 -5 -6 6 -1 11 2 17 5 13 3 -3 4 -12 1 -19z"/>
<path d="M2420 3663 c0 -40 -4 -63 -12 -66 -10 -3 -10 -11 -3 -32 20 -57 30
-36 28 56 -3 103 -13 136 -13 42z"/>
<path d="M4336 3697 c-9 -13 -31 -32 -50 -42 -18 -10 -42 -32 -52 -49 -14 -24
-18 -27 -23 -13 -6 15 -9 14 -33 -6 -25 -21 -33 -55 -16 -68 4 -3 -6 -21 -22
-40 -25 -28 -31 -32 -40 -19 -8 12 -10 12 -8 -5 3 -43 -2 -70 -11 -56 -6 9
-11 10 -15 2 -4 -6 -12 -9 -17 -6 -5 4 -9 2 -9 -4 0 -5 12 -8 28 -7 18 2 31
12 40 29 7 15 19 27 27 27 7 0 22 11 33 25 22 28 32 32 32 11 0 -8 -11 -23
-24 -33 -13 -10 -27 -30 -31 -43 -7 -22 -6 -23 9 -11 9 7 16 17 16 21 0 5 15
25 33 45 17 20 33 41 33 46 3 22 5 23 15 9 8 -11 8 -9 3 10 -15 48 -11 84 11
88 22 5 65 47 65 63 0 6 5 7 11 3 6 -3 9 -15 6 -25 -3 -11 -1 -17 4 -13 13 8
11 44 -2 44 -8 0 -7 5 1 15 7 9 10 18 7 21 -3 3 -13 -5 -21 -19z m-121 -156
c3 -5 1 -12 -5 -16 -5 -3 -10 1 -10 9 0 18 6 21 15 7z"/>
<path d="M3790 3674 c0 -8 5 -12 10 -9 6 4 8 11 5 16 -9 14 -15 11 -15 -7z"/>
<path d="M1550 3654 c0 -6 5 -15 12 -22 19 -19 -3 -14 -26 6 -19 16 -19 16 2
-18 27 -45 40 -48 38 -11 -1 27 -26 70 -26 45z"/>
<path d="M2351 3630 c0 -14 4 -32 9 -40 9 -13 10 -13 9 0 -1 8 -5 26 -9 40
l-8 25 -1 -25z"/>
<path d="M4700 3629 c0 -5 5 -7 10 -4 6 3 10 8 10 11 0 2 -4 4 -10 4 -5 0 -10
-5 -10 -11z"/>
<path d="M2452 3575 c0 -46 2 -54 8 -33 4 14 4 41 0 60 -7 28 -8 24 -8 -27z"/>
<path d="M2772 3605 c0 -16 2 -22 5 -12 2 9 2 23 0 30 -3 6 -5 -1 -5 -18z"/>
<path d="M2901 3614 c0 -11 3 -14 6 -6 3 7 2 16 -1 19 -3 4 -6 -2 -5 -13z"/>
<path d="M4742 3604 c13 -28 23 -30 44 -9 9 8 14 15 12 15 -2 0 -17 4 -35 9
-31 9 -32 9 -21 -15z"/>
<path d="M4320 3611 c0 -5 -9 -12 -19 -16 -10 -3 -21 -15 -24 -26 -5 -19 -4
-19 26 4 33 25 46 47 28 47 -6 0 -11 -4 -11 -9z"/>
<path d="M1970 3601 c0 -6 4 -13 10 -16 6 -3 7 1 4 9 -7 18 -14 21 -14 7z"/>
<path d="M6270 3595 c-19 -7 -47 -16 -61 -19 -25 -5 -54 -49 -44 -66 3 -5 -17
-7 -45 -3 -31 4 -50 2 -50 -4 0 -6 -6 -11 -12 -10 -46 1 -78 -4 -73 -13 4 -6
11 -8 16 -5 5 4 9 2 9 -3 0 -6 15 -13 34 -16 19 -4 40 -14 47 -23 12 -15 12
-16 -6 -9 -23 9 -24 9 -48 7 -10 0 -15 -5 -12 -11 3 -5 0 -10 -7 -11 -7 0 11
-7 40 -15 64 -17 122 -15 114 4 -3 10 3 11 23 6 15 -4 30 -3 34 2 3 5 19 15
34 22 15 6 31 20 34 29 4 10 13 24 20 31 6 7 9 20 6 30 -6 15 -5 15 10 3 12
-9 17 -10 17 -2 0 7 4 10 8 7 12 -7 26 6 39 37 11 24 10 27 -5 27 -12 0 -13 3
-5 8 22 14 -81 11 -117 -3z m-20 -85 c0 -5 -9 -6 -20 -3 -11 3 -20 9 -20 13 0
5 9 6 20 3 11 -3 20 -9 20 -13z"/>
<path d="M2382 3575 c0 -16 2 -22 5 -12 2 9 2 23 0 30 -3 6 -5 -1 -5 -18z"/>
<path d="M4810 3590 c0 -11 13 -18 45 -23 11 -1 25 -6 31 -10 6 -3 14 -3 18 0
3 4 -15 15 -41 25 -56 21 -53 21 -53 8z"/>
<path d="M1925 3565 c4 -16 16 -39 28 -50 11 -11 16 -13 9 -4 -6 8 -19 31 -27
50 -16 33 -16 33 -10 4z"/>
<path d="M1490 3570 c0 -5 5 -10 11 -10 5 0 7 5 4 10 -3 6 -8 10 -11 10 -2 0
-4 -4 -4 -10z"/>
<path d="M1575 3560 c3 -5 8 -10 11 -10 2 0 4 5 4 10 0 6 -5 10 -11 10 -5 0
-7 -4 -4 -10z"/>
<path d="M3970 3540 c-11 -20 3 -39 15 -20 3 5 3 10 -2 11 -4 0 1 4 11 8 17 7
18 8 3 14 -11 4 -20 -1 -27 -13z"/>
<path d="M4327 3543 c-4 -3 -7 -11 -7 -17 0 -6 5 -5 12 2 6 6 9 14 7 17 -3 3
-9 2 -12 -2z"/>
<path d="M1531 3517 c7 -15 15 -27 19 -27 13 0 6 -69 -8 -75 -7 -3 -10 -11 -7
-17 4 -7 0 -5 -8 5 -16 19 -27 22 -27 7 0 -15 42 -50 62 -50 10 0 18 -5 18
-10 0 -10 -21 -8 -75 7 -16 5 -18 3 -8 -8 8 -11 8 -17 -2 -26 -10 -9 -15 -6
-24 14 -7 14 -14 23 -17 20 -3 -3 -1 -15 6 -26 7 -14 7 -21 0 -21 -5 0 -10 5
-10 10 0 6 -5 10 -12 10 -6 0 0 -12 14 -27 14 -16 28 -38 31 -51 5 -20 2 -22
-16 -16 l-22 6 21 -23 c24 -28 25 -40 2 -62 -15 -15 -18 -16 -32 -1 -10 10
-16 11 -16 4 0 -7 11 -21 25 -32 26 -20 57 -67 36 -54 -18 12 -12 -6 7 -20 9
-7 29 -10 45 -7 17 4 27 1 27 -6 0 -7 -4 -9 -10 -6 -5 3 -10 1 -10 -4 0 -6 20
-11 45 -11 50 0 54 6 25 38 -24 25 -25 32 -5 32 8 0 15 5 15 10 0 6 12 3 26
-7 15 -9 36 -18 48 -18 22 -2 70 -13 96 -22 8 -4 23 -5 33 -4 9 1 17 -4 17
-11 0 -7 16 -23 35 -36 19 -12 35 -17 35 -12 0 6 5 8 10 5 16 -10 12 7 -10 40
-30 45 -24 54 10 15 16 -19 29 -30 30 -24 0 7 -16 26 -35 43 -20 17 -31 31
-26 31 5 0 -2 26 -16 58 -17 38 -39 68 -64 87 -59 44 -38 42 30 -4 34 -22 61
-38 61 -35 0 2 -16 20 -35 39 -51 51 -68 90 -18 43 37 -37 63 -48 63 -29 0 10
-85 94 -132 131 -15 12 -32 19 -37 15 -6 -3 -16 2 -23 11 -54 67 -98 97 -84
57 5 -15 4 -15 -9 1 -8 11 -15 23 -15 26 0 9 -51 32 -58 25 -3 -2 -11 0 -19 7
-12 10 -12 7 -2 -15z m9 -310 c0 -6 -9 -2 -20 8 -11 10 -20 23 -20 28 0 6 9 2
20 -8 11 -10 20 -23 20 -28z"/>
<path d="M1456 3497 c0 -38 12 -67 27 -67 7 0 7 4 -1 12 -7 7 -12 22 -12 35 0
21 3 20 36 -15 27 -28 32 -31 23 -12 -7 14 -12 29 -11 33 1 5 -2 6 -7 3 -5 -4
-18 5 -29 19 -11 14 -21 25 -23 25 -2 0 -4 -15 -3 -33z"/>
<path d="M4006 3513 c-6 -14 -5 -15 5 -6 7 7 10 15 7 18 -3 3 -9 -2 -12 -12z"/>
<path d="M5045 3520 c3 -5 16 -10 28 -10 18 0 19 2 7 10 -20 13 -43 13 -35 0z"/>
<path d="M4290 3510 c-9 -6 -10 -10 -3 -10 6 0 15 5 18 10 8 12 4 12 -15 0z"/>
<path d="M4087 3503 c-4 -3 -7 -11 -7 -17 0 -6 5 -5 12 2 6 6 9 14 7 17 -3 3
-9 2 -12 -2z"/>
<path d="M4115 3489 c-10 -30 0 -33 13 -4 6 14 7 25 2 25 -5 0 -12 -9 -15 -21z"/>
<path d="M4330 3501 c0 -7 -4 -9 -10 -6 -5 3 -10 1 -10 -4 0 -6 4 -11 9 -11
13 0 25 20 17 27 -3 4 -6 1 -6 -6z"/>
<path d="M4375 3480 c10 -11 20 -20 22 -20 2 0 -1 9 -7 20 -6 11 -16 20 -22
20 -6 0 -3 -9 7 -20z"/>
<path d="M4427 3476 c-4 -10 -1 -13 9 -9 7 3 14 9 14 14 0 14 -17 10 -23 -5z"/>
<path d="M1990 3471 c0 -5 5 -13 10 -16 6 -3 10 -2 10 4 0 5 -4 13 -10 16 -5
3 -10 2 -10 -4z"/>
<path d="M4240 3470 c0 -5 7 -10 16 -10 8 0 12 5 9 10 -3 6 -10 10 -16 10 -5
0 -9 -4 -9 -10z"/>
<path d="M4325 3454 c-11 -17 -12 -25 -4 -22 6 2 16 14 20 26 11 29 5 28 -16
-4z"/>
<path d="M2705 3460 c-3 -5 -1 -10 4 -10 6 0 11 5 11 10 0 6 -2 10 -4 10 -3 0
-8 -4 -11 -10z"/>
<path d="M2886 3463 c-3 -3 -6 -14 -6 -24 0 -9 -6 -19 -12 -22 -10 -4 -10 -7
-1 -18 15 -16 21 -11 33 30 8 29 1 48 -14 34z"/>
<path d="M3041 3444 c0 -11 3 -14 6 -6 3 7 2 16 -1 19 -3 4 -6 -2 -5 -13z"/>
<path d="M3767 3453 c-4 -3 -7 -11 -7 -17 0 -6 5 -5 12 2 6 6 9 14 7 17 -3 3
-9 2 -12 -2z"/>
<path d="M2724 3426 c-12 -13 -25 -34 -30 -47 -8 -23 -9 -22 -15 11 l-6 35 -2
-32 c0 -18 -8 -50 -16 -70 -8 -21 -16 -58 -17 -83 -3 -37 0 -45 14 -42 12 2
15 -3 11 -20 -4 -20 -3 -21 7 -5 6 9 15 17 20 17 6 0 10 -8 11 -17 2 -49 19
52 18 112 -1 78 3 103 17 113 8 6 18 53 11 51 -1 0 -12 -11 -23 -23z m-43
-146 c-8 -27 -18 -50 -22 -50 -6 0 -3 16 17 88 2 6 7 12 12 12 5 0 2 -22 -7
-50z m29 -50 c0 -16 -4 -30 -8 -30 -5 0 -7 14 -4 30 2 17 6 30 8 30 2 0 4 -13
4 -30z"/>
<path d="M4035 3440 c-3 -5 -1 -10 4 -10 6 0 11 5 11 10 0 6 -2 10 -4 10 -3 0
-8 -4 -11 -10z"/>
<path d="M4358 3428 c-10 -10 -14 -18 -9 -18 6 0 13 5 16 10 4 6 10 8 15 5 5
-3 12 0 16 6 4 7 3 9 -4 5 -5 -3 -12 -3 -14 2 -1 4 -11 0 -20 -10z"/>
<path d="M4431 3433 c-6 -10 -11 -14 -11 -9 0 5 -8 2 -17 -6 -10 -8 -32 -20
-50 -26 -28 -9 -32 -8 -36 10 -8 29 -30 11 -24 -19 3 -15 -1 -27 -9 -30 -11
-4 -12 -9 -3 -19 6 -8 7 -14 2 -14 -5 0 -15 -10 -20 -23 -9 -19 -8 -24 3 -24
7 0 11 4 8 9 -3 4 0 8 5 8 6 0 11 -4 11 -10 0 -5 5 -10 10 -10 6 0 5 8 -2 19
-10 17 -9 23 6 40 25 27 36 26 36 -1 0 -17 -3 -19 -9 -9 -7 10 -10 10 -16 1
-9 -14 13 -31 30 -24 5 3 1 -2 -9 -10 -11 -9 -14 -16 -8 -16 7 0 12 -10 12
-21 0 -18 3 -19 14 -9 8 6 13 17 10 25 -3 7 3 19 13 26 26 19 67 79 54 79 -6
0 -11 -4 -11 -10 0 -5 -5 -10 -10 -10 -6 0 4 18 21 40 23 29 30 43 22 51 -8 8
-14 6 -22 -8z"/>
<path d="M2091 3423 c-1 -12 4 -25 9 -28 12 -7 12 2 0 30 -8 19 -9 19 -9 -2z"/>
<path d="M3875 3430 c-3 -5 -1 -10 4 -10 6 0 11 5 11 10 0 6 -2 10 -4 10 -3 0
-8 -4 -11 -10z"/>
<path d="M1470 3404 c0 -12 7 -24 15 -28 19 -7 19 5 0 30 -14 19 -14 19 -15
-2z"/>
<path d="M3180 3410 c0 -5 5 -10 10 -10 6 0 10 5 10 10 0 6 -4 10 -10 10 -5 0
-10 -4 -10 -10z"/>
<path d="M3710 3410 c0 -5 5 -10 11 -10 5 0 7 5 4 10 -3 6 -8 10 -11 10 -2 0
-4 -4 -4 -10z"/>
<path d="M4230 3412 c0 -7 -9 -22 -20 -34 -11 -12 -19 -29 -18 -37 2 -10 -4
-15 -14 -15 -11 1 -18 -5 -18 -17 0 -21 16 -26 22 -7 3 8 9 8 24 0 17 -10 17
-11 2 -12 -10 0 -18 -4 -18 -9 0 -13 -27 -21 -46 -14 -8 3 -13 12 -10 19 3 8
1 14 -3 14 -5 0 -11 -6 -14 -12 -3 -10 -7 -10 -21 1 -9 7 -16 19 -15 25 4 34
-1 39 -21 21 -22 -20 -26 -14 -10 15 8 16 7 18 -4 14 -8 -3 -17 -12 -20 -20
-3 -8 -19 -14 -37 -14 -30 0 -31 1 -25 32 l6 32 -25 -24 c-19 -18 -24 -20 -19
-7 4 12 1 17 -10 17 -9 0 -16 6 -16 13 0 8 -3 7 -9 -3 -6 -8 -8 -17 -5 -21 2
-4 -9 -18 -24 -31 -38 -32 -44 -43 -36 -72 5 -21 9 -24 25 -15 15 7 19 6 19
-5 0 -8 -4 -16 -9 -18 -14 -5 -24 -48 -11 -48 6 0 8 -5 4 -12 -5 -8 -2 -9 10
-5 10 4 15 3 11 -3 -3 -6 0 -10 7 -10 7 0 -8 -14 -34 -30 -51 -32 -64 -56 -25
-45 20 6 19 4 -8 -22 -16 -16 -32 -28 -33 -27 -2 1 -15 -7 -30 -19 -99 -83
-116 -110 -57 -87 25 9 26 9 15 -5 -18 -22 7 -20 65 5 50 22 80 26 55 9 -20
-14 25 -2 63 18 17 9 27 10 27 3 0 -7 5 -8 13 -3 6 4 17 8 23 9 6 1 26 5 43 9
20 4 31 3 31 -4 0 -6 11 -11 25 -11 31 0 32 -13 3 -28 -20 -9 -20 -11 -4 -11
15 -1 16 -4 7 -15 -19 -22 14 -28 41 -7 36 28 77 35 99 15 16 -15 21 -15 58 2
23 10 37 21 31 24 -11 7 -2 50 11 50 5 0 9 5 9 10 0 6 -12 3 -27 -7 -24 -15
-26 -15 -15 -1 7 9 11 22 10 29 -2 8 2 13 8 12 7 -1 9 8 6 22 -2 14 -8 25 -13
25 -5 0 -9 5 -9 11 0 6 7 9 15 5 10 -3 20 5 30 24 14 26 14 29 0 24 -8 -3 -13
-10 -10 -14 3 -5 1 -11 -4 -15 -6 -3 -15 4 -22 16 -9 18 -6 28 21 66 17 25 29
48 26 51 -3 3 -6 0 -6 -7 0 -7 -4 -9 -10 -6 -5 3 -10 1 -10 -5 0 -6 -6 -18
-14 -25 -10 -11 -16 -11 -25 -2 -10 9 -15 8 -25 -5 -14 -20 -36 -24 -36 -8 0
6 6 10 14 10 7 0 26 12 40 27 l28 27 -26 9 c-28 9 -31 41 -5 58 10 8 8 9 -8 4
-23 -6 -32 8 -14 20 6 3 8 14 6 25 -2 12 0 18 6 15 5 -4 6 -11 3 -17 -4 -6 -1
-9 7 -6 8 3 14 10 14 16 0 5 3 14 8 18 13 13 7 26 -10 20 -9 -4 -20 -1 -25 6
-6 11 -8 11 -8 0z m-340 -107 c-11 -13 -15 -13 -22 -3 -6 10 -10 7 -14 -9 -6
-22 -24 -32 -24 -15 0 18 58 56 69 46 2 -2 -2 -11 -9 -19z m52 3 c-7 -7 -12
-8 -12 -2 0 6 3 14 7 17 3 4 9 5 12 2 2 -3 -1 -11 -7 -17z m195 -75 c-9 -9
-19 -14 -22 -11 -3 3 2 13 11 22 9 9 19 14 22 11 3 -3 -2 -13 -11 -22z"/>
<path d="M1365 3400 c3 -5 8 -10 11 -10 2 0 4 5 4 10 0 6 -5 10 -11 10 -5 0
-7 -4 -4 -10z"/>
<path d="M2901 3377 c-6 -16 -11 -43 -12 -60 0 -27 -2 -29 -9 -12 -8 19 -9 19
-9 -4 -1 -17 3 -22 15 -17 9 3 18 6 20 6 2 0 4 12 4 26 0 14 4 33 9 43 6 10 6
23 1 31 -7 11 -11 8 -19 -13z"/>
<path d="M3681 3384 c0 -11 3 -14 6 -6 3 7 2 16 -1 19 -3 4 -6 -2 -5 -13z"/>
<path d="M4163 3381 c-14 -12 -18 -22 -12 -32 7 -12 11 -11 25 2 9 9 14 24 12
32 -3 14 -6 13 -25 -2z"/>
<path d="M1930 3386 c0 -2 8 -10 18 -17 15 -13 16 -12 3 4 -13 16 -21 21 -21
13z"/>
<path d="M2856 3366 c6 -16 4 -18 -9 -13 -14 5 -17 0 -17 -31 l1 -37 20 39
c16 29 18 41 9 50 -8 8 -9 6 -4 -8z"/>
<path d="M2955 3366 c-13 -14 -17 -56 -5 -56 8 0 25 58 18 65 -1 2 -8 -2 -13
-9z"/>
<path d="M5930 3374 c0 -2 9 -8 20 -14 11 -6 20 -7 20 -2 0 6 -9 12 -20 15
-11 3 -20 3 -20 1z"/>
<path d="M3843 3355 c0 -11 4 -12 14 -4 7 6 13 13 13 15 0 2 -6 4 -13 4 -8 0
-14 -7 -14 -15z"/>
<path d="M2000 3356 c0 -2 8 -10 18 -17 15 -13 16 -12 3 4 -13 16 -21 21 -21
13z"/>
<path d="M2731 3318 c0 -18 4 -42 9 -53 5 -14 8 -4 7 32 -1 29 -5 53 -9 53 -5
0 -8 -15 -7 -32z"/>
<path d="M4466 3336 c3 -8 -4 -24 -16 -36 -16 -16 -20 -28 -15 -49 4 -21 2
-30 -9 -34 -9 -4 -16 -17 -15 -29 0 -17 2 -19 7 -8 15 34 41 62 51 56 7 -5 8
-1 5 9 -4 9 -13 14 -20 11 -28 -11 -13 9 18 24 39 18 49 41 16 33 -17 -3 -19
-2 -9 5 7 5 10 15 7 21 -10 16 -26 14 -20 -3z"/>
<path d="M5995 3340 c27 -12 43 -12 25 0 -8 5 -22 9 -30 9 -10 0 -8 -3 5 -9z"/>
<path d="M2054 3315 c6 -16 5 -18 -5 -7 -7 6 -15 12 -18 12 -10 0 -4 -133 7
-172 5 -20 9 -50 8 -66 -1 -20 7 -37 30 -59 18 -17 35 -29 37 -26 3 3 10 -4
16 -15 6 -11 18 -23 28 -26 14 -6 16 -5 6 5 -18 18 -16 42 3 35 9 -3 12 -2 9
5 -4 5 -2 16 4 23 7 9 10 39 7 82 -4 54 -13 84 -41 135 -36 68 -65 103 -65 79
0 -9 -4 -9 -17 1 -15 12 -16 12 -9 -6z m0 -41 c3 -8 2 -12 -4 -9 -6 3 -10 10
-10 16 0 14 7 11 14 -7z m101 -214 c19 -36 19 -46 1 -31 -12 10 -29 61 -20 61
2 0 10 -13 19 -30z"/>
<path d="M4100 3309 c0 -5 5 -7 10 -4 6 3 10 8 10 11 0 2 -4 4 -10 4 -5 0 -10
-5 -10 -11z"/>
<path d="M2561 3269 c-11 -18 -21 -42 -21 -52 0 -15 5 -13 25 10 18 21 24 24
25 11 0 -9 -5 -18 -11 -20 -7 -2 -10 -10 -8 -17 3 -9 10 -5 22 12 15 23 15 30
3 58 l-14 33 -21 -35z"/>
<path d="M2940 3270 c-1 -14 -3 -35 -6 -47 -2 -13 1 -23 6 -23 6 0 10 -9 10
-20 0 -11 4 -20 10 -20 5 0 9 15 9 33 -1 17 2 42 6 55 5 16 3 22 -8 22 -8 0
-18 6 -20 13 -3 6 -6 1 -7 -13z"/>
<path d="M2865 3261 c-3 -5 -1 -12 5 -16 5 -3 10 1 10 9 0 18 -6 21 -15 7z"/>
<path d="M2896 3254 c-4 -9 -4 -19 -1 -22 2 -3 7 3 11 12 4 9 4 19 1 22 -2 3
-7 -3 -11 -12z"/>
<path d="M2607 3213 c-4 -3 -7 -13 -7 -22 1 -13 3 -13 11 2 11 19 8 33 -4 20z"/>
<path d="M2853 3180 c0 -25 2 -35 4 -22 2 12 2 32 0 45 -2 12 -4 2 -4 -23z"/>
<path d="M3070 3195 c0 -14 4 -25 9 -25 4 0 6 11 3 25 -2 14 -6 25 -8 25 -2 0
-4 -11 -4 -25z"/>
<path d="M2762 3160 c0 -14 2 -19 5 -12 2 6 2 18 0 25 -3 6 -5 1 -5 -13z"/>
<path d="M4464 3155 c-9 -14 -14 -28 -11 -31 3 -3 13 6 22 20 10 14 21 23 26
20 5 -3 9 0 9 5 0 20 -30 11 -46 -14z"/>
<path d="M2190 3161 c0 -5 5 -13 10 -16 6 -3 10 -2 10 4 0 5 -4 13 -10 16 -5
3 -10 2 -10 -4z"/>
<path d="M3815 3160 c-3 -6 1 -7 9 -4 18 7 21 14 7 14 -6 0 -13 -4 -16 -10z"/>
<path d="M2745 3121 c-3 -5 -1 -12 5 -16 5 -3 10 1 10 9 0 18 -6 21 -15 7z"/>
<path d="M2741 3054 c0 -11 3 -14 6 -6 3 7 2 16 -1 19 -3 4 -6 -2 -5 -13z"/>
<path d="M1650 3025 c7 -9 15 -13 17 -11 7 7 -7 26 -19 26 -6 0 -6 -6 2 -15z"/>
<path d="M1425 3000 c3 -5 10 -10 16 -10 5 0 9 5 9 10 0 6 -7 10 -16 10 -8 0
-12 -4 -9 -10z"/>
<path d="M1460 3001 c0 -11 31 -24 39 -16 3 3 -1 10 -9 15 -19 12 -30 12 -30
1z"/>
<path d="M1680 3002 c0 -5 19 -24 43 -42 l42 -33 -40 41 c-41 44 -45 47 -45
34z"/>
<path d="M1364 2948 c-9 -14 -2 -16 26 -8 25 6 25 6 3 12 -13 3 -26 2 -29 -4z"/>
<path d="M1725 2739 c-27 -19 -51 -37 -53 -41 -2 -5 -11 -8 -19 -8 -9 0 -13
-3 -10 -7 4 -3 2 -12 -3 -18 -8 -9 -6 -14 6 -19 11 -4 14 -12 9 -24 -4 -9 -7
-29 -6 -44 1 -14 -10 -48 -24 -76 -14 -27 -25 -57 -25 -65 0 -9 -5 -19 -10
-22 -6 -4 -8 -11 -5 -16 4 -5 2 -9 -4 -9 -15 0 -7 -72 12 -107 19 -36 66 -73
117 -94 48 -19 155 -17 285 5 61 10 119 19 130 21 30 3 67 -25 62 -47 -3 -10
0 -18 5 -18 6 0 4 -8 -5 -18 -10 -10 -14 -22 -11 -25 4 -4 0 -9 -9 -13 -9 -3
-22 -24 -27 -45 -10 -35 -13 -39 -36 -33 -19 5 -23 3 -18 -9 8 -22 -4 -37 -23
-30 -15 6 -14 7 2 13 17 6 17 7 -3 12 -12 4 -22 2 -22 -2 0 -4 -10 -6 -22 -3
-20 4 -21 3 -5 -7 9 -6 17 -16 17 -22 0 -10 -14 -8 -55 7 -16 7 -18 6 -7 -6
14 -16 16 -33 2 -24 -5 3 -10 2 -10 -4 0 -6 -7 -8 -15 -5 -8 4 -15 1 -15 -6 0
-16 -26 -40 -43 -40 -8 0 -17 -7 -21 -15 -3 -8 -14 -15 -24 -15 -30 0 -16 -49
17 -62 28 -11 191 -37 191 -31 0 3 -5 13 -10 24 -7 11 -7 19 -1 19 5 0 12 -6
15 -12 4 -7 4 -3 2 9 -3 15 0 20 10 16 17 -6 18 9 3 24 -8 8 -8 13 0 17 6 4
11 4 11 1 0 -3 6 0 14 7 7 7 12 18 9 24 -2 6 21 23 52 38 30 15 53 32 50 37
-4 5 3 9 14 9 15 0 19 4 14 18 -6 15 -3 14 17 -3 l23 -20 -11 22 c-7 12 -17
24 -24 26 -7 3 -3 6 10 6 15 1 21 5 16 12 -4 7 -1 10 7 7 8 -3 16 -18 19 -34
l6 -29 7 26 c3 14 2 41 -3 59 -12 42 -4 52 11 14 13 -33 17 -52 18 -76 1 -21
30 -17 43 5 5 9 16 17 25 17 13 0 13 3 3 15 -7 9 -8 15 -2 15 6 0 5 18 -4 47
-8 27 -13 55 -10 63 2 8 4 4 5 -10 2 -23 3 -23 17 9 8 19 12 39 10 45 -2 6 -5
3 -5 -8 -1 -15 -4 -16 -16 -6 -8 7 -15 18 -15 25 0 7 -13 26 -29 43 -17 17
-35 50 -41 74 -7 24 -15 48 -20 53 -4 6 -11 26 -15 45 -15 77 -46 155 -77 194
-53 70 -189 123 -338 132 -83 6 -86 5 -135 -27z m5 -163 c0 -3 -4 -8 -10 -11
-5 -3 -10 -1 -10 4 0 6 5 11 10 11 6 0 10 -2 10 -4z m435 -27 c-3 -3 0 -21 6
-38 9 -24 14 -29 24 -21 10 8 15 8 21 -1 4 -8 3 -9 -4 -5 -7 4 -12 3 -12 -3 0
-5 5 -13 10 -16 16 -10 12 -25 -7 -25 -14 0 -13 -4 5 -23 l22 -24 -20 -18
c-11 -10 -20 -22 -20 -27 0 -13 -42 -47 -57 -48 -15 0 -16 9 -5 28 5 7 16 10
25 6 12 -4 17 -1 17 11 0 12 -5 15 -16 11 -13 -5 -14 -2 -8 11 10 23 11 130 0
164 -6 20 -4 26 8 26 8 0 13 -4 11 -8z m45 -29 c0 -5 -4 -10 -10 -10 -5 0 -10
5 -10 10 0 6 5 10 10 10 6 0 10 -4 10 -10z m-543 -22 c-3 -8 -6 -5 -6 6 -1 11
2 17 5 13 3 -3 4 -12 1 -19z m0 -70 c-2 -13 -4 -5 -4 17 -1 22 1 32 4 23 2
-10 2 -28 0 -40z m381 26 c24 -17 30 -54 8 -54 -24 0 -60 36 -53 53 8 21 17
21 45 1z m214 -123 c9 -34 -3 -41 -33 -19 -16 12 -29 27 -29 33 0 18 58 5 62
-14z m-602 -11 c0 -5 -4 -10 -10 -10 -5 0 -10 5 -10 10 0 6 5 10 10 10 6 0 10
-4 10 -10z m520 -86 c0 -8 -4 -12 -10 -9 -5 3 -10 13 -10 21 0 8 5 12 10 9 6
-3 10 -13 10 -21z m-105 -314 c3 -5 -3 -10 -15 -10 -12 0 -18 5 -15 10 3 6 10
10 15 10 5 0 12 -4 15 -10z"/>
<path d="M895 2710 c3 -5 8 -10 11 -10 2 0 4 5 4 10 0 6 -5 10 -11 10 -5 0 -7
-4 -4 -10z"/>
<path d="M3555 2697 c-8 -4 -26 -9 -42 -11 -41 -4 -96 -33 -127 -65 -24 -25
-26 -32 -16 -51 8 -15 8 -20 1 -16 -7 4 -11 -1 -11 -13 0 -11 -5 -23 -10 -26
-6 -4 -8 -16 -4 -28 6 -19 5 -20 -10 -8 -21 18 -20 33 4 64 24 31 26 44 3 26
-9 -8 -29 -42 -45 -76 -15 -34 -46 -81 -68 -104 -22 -23 -40 -46 -40 -50 0 -5
-9 -13 -19 -19 -11 -5 -22 -23 -26 -40 -4 -17 -11 -28 -16 -24 -5 3 -9 -2 -9
-10 0 -9 -4 -16 -10 -16 -5 0 -19 -9 -30 -20 -12 -12 -25 -18 -30 -15 -6 4
-10 2 -10 -4 0 -5 -11 -8 -25 -5 -14 2 -26 0 -26 -6 -1 -5 -2 -14 -3 -19 -2
-18 -16 -24 -16 -7 0 9 -4 14 -10 11 -5 -3 -10 -19 -10 -35 0 -19 -7 -33 -20
-40 -20 -11 -28 -40 -11 -40 5 0 11 -17 15 -38 4 -31 13 -42 41 -58 19 -10 35
-23 35 -28 0 -5 3 -6 7 -3 3 4 12 2 20 -4 9 -9 17 -8 27 0 10 8 16 9 21 1 3
-5 3 -10 -2 -10 -9 0 29 -23 65 -40 13 -5 20 -15 17 -21 -5 -7 4 -8 28 -4 20
4 43 2 54 -4 10 -6 13 -11 5 -11 -8 0 -10 -5 -5 -12 4 -7 8 -32 9 -55 2 -57
24 -79 64 -63 17 7 40 9 52 6 13 -4 45 -9 71 -12 27 -3 59 -9 72 -14 12 -5 26
-6 29 -3 11 12 6 33 -8 33 -9 0 -12 7 -9 20 3 11 0 20 -6 20 -6 0 -11 9 -11
21 0 13 -11 25 -33 34 -50 21 -64 41 -43 63 9 10 13 21 10 25 -4 3 -15 -4 -25
-16 -10 -12 -18 -16 -19 -9 0 6 5 12 10 12 6 0 10 5 10 11 0 5 -4 7 -10 4 -13
-8 -82 44 -74 56 3 5 -3 12 -13 15 -10 3 -33 13 -52 21 -27 12 -31 17 -19 24
11 6 15 21 13 51 -3 51 9 78 35 78 10 0 20 6 22 12 4 10 10 10 31 1 18 -8 27
-9 27 -2 0 6 5 7 10 4 15 -9 12 0 -11 39 -22 38 -17 46 12 20 16 -15 17 -14
12 5 -3 12 -11 21 -18 21 -18 0 -47 64 -38 86 4 12 3 15 -5 10 -8 -5 -12 0
-12 13 0 11 5 23 11 26 7 5 4 13 -7 26 -9 10 -20 17 -24 14 -4 -2 -6 8 -5 23
3 41 4 44 16 37 6 -4 8 -13 5 -21 -7 -18 9 -18 27 1 13 13 16 13 21 -2 4 -9 2
-21 -4 -27 -5 -5 -10 -15 -10 -21 0 -5 4 -4 8 2 5 8 8 -7 8 -35 1 -29 9 -61
22 -85 12 -21 22 -47 22 -58 0 -12 14 -34 30 -49 17 -15 30 -33 30 -39 0 -6 5
-11 11 -11 5 0 7 5 4 10 -10 16 11 12 25 -5 7 -8 16 -12 22 -9 5 3 14 1 21 -4
18 -14 122 -26 217 -25 73 1 93 5 140 30 30 15 55 35 55 43 0 8 10 17 23 20
13 3 23 8 23 12 1 20 12 48 19 48 5 0 6 8 3 19 -2 10 2 25 11 33 11 12 14 32
10 89 -2 41 -5 89 -5 107 -1 29 -9 37 -32 33 -5 -1 -4 6 2 16 8 14 4 20 -21
30 -16 7 -27 17 -24 22 9 14 -52 61 -79 61 -13 0 -30 6 -37 13 -7 6 -17 12
-23 12 -5 1 -35 4 -65 8 -81 11 -209 13 -225 4z m409 -83 c9 -24 2 -26 -12 -4
-7 11 -8 20 -3 20 5 0 12 -7 15 -16z m-138 -14 c8 0 19 -11 26 -25 6 -13 15
-22 19 -19 5 3 9 1 9 -4 0 -5 17 -25 37 -46 32 -32 38 -44 37 -81 0 -28 4 -42
10 -38 6 4 8 3 4 -1 -4 -5 -2 -20 3 -34 8 -20 7 -28 -4 -34 -8 -4 -18 -20 -22
-35 -9 -36 -24 -55 -39 -46 -6 4 -5 -1 3 -10 12 -15 10 -17 -17 -13 -24 2 -29
0 -25 -15 4 -13 0 -19 -12 -19 -10 0 -15 -5 -12 -13 3 -8 -10 -20 -33 -30 -35
-15 -111 -35 -82 -21 18 8 92 86 92 96 0 5 4 7 9 4 5 -3 14 1 21 9 7 9 8 15 2
15 -5 0 -1 17 9 37 21 41 25 78 9 88 -11 7 -9 33 4 53 4 7 5 25 0 40 -4 15 -8
36 -9 46 -1 10 -9 24 -18 31 -9 7 -14 15 -10 18 3 4 2 7 -3 7 -23 0 -45 26
-38 45 5 11 9 14 12 7 2 -7 10 -12 18 -12z m-138 -217 c3 -29 0 -33 -21 -33
-13 0 -32 9 -43 21 -18 20 -18 21 1 35 33 24 60 14 63 -23z m-388 -147 c-1
-17 -2 -18 -9 -6 -5 8 -12 26 -15 40 -7 24 -6 24 8 6 9 -11 16 -29 16 -40z
m394 -74 c-6 -4 -14 -14 -17 -22 -4 -10 -6 -8 -6 8 -1 15 5 22 17 22 10 0 13
-3 6 -8z m-714 -67 c0 -5 -5 -3 -10 5 -5 8 -10 20 -10 25 0 6 5 3 10 -5 5 -8
10 -19 10 -25z m-9 -47 c11 -21 11 -22 -4 -9 -10 7 -17 17 -17 22 0 15 9 10
21 -13z m76 -93 c0 -8 -4 -15 -9 -15 -10 0 -11 14 -1 23 9 10 10 9 10 -8z
m319 -62 c-10 -10 -46 -11 -46 -1 0 4 12 8 27 8 14 0 23 -3 19 -7z m-186 -13
c0 -5 -4 -10 -10 -10 -5 0 -10 5 -10 10 0 6 5 10 10 10 6 0 10 -4 10 -10z"/>
<path d="M3922 2419 c-12 -19 -11 -19 8 -9 11 6 20 15 20 20 0 17 -15 11 -28
-11z"/>
<path d="M3920 2379 c-13 -8 -13 -10 0 -19 13 -8 13 -10 -1 -10 -9 0 -16 -7
-16 -15 0 -8 4 -15 9 -15 4 0 8 4 8 10 0 5 7 7 16 3 12 -4 14 0 12 20 -5 33
-10 38 -28 26z"/>
<path d="M3912 2294 c-8 -8 -11 -22 -7 -31 5 -14 9 -12 20 11 8 16 15 30 15
32 0 9 -16 2 -28 -12z"/>
<path d="M815 2659 c-8 -12 22 -49 40 -49 6 0 20 6 31 14 18 14 17 15 -18 30
-44 19 -45 19 -53 5z"/>
<path d="M798 2623 c-11 -3 -15 -10 -11 -20 5 -12 2 -15 -8 -11 -19 7 -42 -25
-28 -39 5 -5 11 -19 14 -31 3 -16 -1 -20 -15 -17 -15 3 -22 -7 -35 -46 -9 -27
-14 -56 -11 -64 3 -9 0 -15 -7 -15 -16 0 -92 -208 -113 -310 -11 -51 -14 -103
-11 -162 l6 -87 71 -105 c39 -58 75 -106 80 -106 12 0 90 41 90 47 0 3 -14 3
-30 1 -17 -3 -33 -1 -36 4 -3 4 -1 8 4 8 5 0 10 11 10 25 -1 14 8 32 18 40 18
14 18 14 1 15 -10 0 -16 4 -13 9 4 5 1 11 -6 13 -22 8 1 25 49 37 53 14 76 37
62 63 -12 22 -11 28 1 28 11 0 50 36 50 46 0 4 8 13 18 20 16 12 16 14 -2 47
-10 20 -15 40 -12 46 4 5 -2 14 -11 20 -17 10 -16 10 3 11 11 0 30 9 42 21 12
11 27 17 32 14 6 -3 10 -2 10 4 0 6 7 8 15 5 11 -5 13 -10 5 -19 -13 -15 36
-75 61 -75 17 0 28 -27 35 -82 3 -25 0 -28 -55 -44 -47 -13 -61 -21 -65 -40
-16 -62 20 -99 79 -83 48 14 57 4 11 -11 -41 -13 -35 -26 22 -51 18 -8 30 -19
27 -26 -2 -8 4 -13 15 -13 11 0 20 -4 20 -10 0 -5 10 -10 23 -10 20 -1 21 -1
4 -11 -17 -10 -37 -16 -59 -18 -5 -1 -8 -6 -8 -12 0 -6 7 -8 16 -5 9 3 12 2 9
-5 -7 -10 -2 -9 105 16 30 7 81 19 113 25 39 8 55 15 50 23 -4 7 1 6 10 -2 15
-12 17 -11 17 3 0 9 11 22 25 28 19 8 22 14 14 24 -6 7 -18 10 -27 8 -15 -5
-16 -4 -1 8 9 7 14 19 12 26 -3 7 4 12 17 12 13 0 19 -4 14 -12 -4 -7 -3 -8 5
-4 6 4 9 12 6 17 -4 5 1 9 9 9 19 0 21 11 4 28 -19 19 -93 14 -138 -9 -40 -21
-41 -21 -54 -3 -11 14 -17 16 -28 7 -8 -7 -26 -9 -48 -4 l-35 7 40 7 c22 4 94
10 160 14 92 5 125 10 142 23 21 16 21 18 5 25 -16 6 -16 7 1 17 10 5 38 10
63 10 l45 0 -22 19 c-12 10 -17 19 -11 19 16 0 3 32 -22 52 -12 10 -36 18 -53
18 -24 0 -33 5 -33 16 0 10 6 14 15 10 8 -3 15 -1 15 4 0 5 -19 14 -42 21 -53
14 -74 24 -71 37 4 17 -35 44 -69 47 -18 2 -35 4 -37 4 -2 1 4 10 15 22 14 16
15 20 4 18 -23 -4 -80 11 -80 23 0 5 12 7 30 3 44 -10 59 5 21 21 -17 7 -31
18 -31 25 0 6 -8 18 -17 26 -16 13 -16 14 -1 10 11 -4 18 2 22 16 10 39 6 55
-16 62 -20 6 -20 8 -5 12 9 2 17 9 17 14 0 5 5 8 12 7 6 -2 14 8 17 22 4 14
17 29 29 35 12 5 22 13 22 17 0 4 8 5 18 2 16 -5 16 -5 -1 9 -11 9 -40 15 -75
16 -56 0 -69 2 -162 15 -34 5 -40 4 -25 -4 16 -8 15 -9 -10 -4 -95 21 -110 22
-135 9 -21 -11 -30 -11 -50 0 -14 7 -29 10 -35 6 -5 -5 -22 -11 -37 -13 -23
-4 -28 -2 -28 16 -1 28 -41 73 -62 69z m112 -103 c8 -5 12 -11 10 -14 -3 -2
-14 2 -24 10 -22 15 -10 19 14 4z m57 -42 c13 -12 23 -24 23 -27 0 -3 -22 -4
-49 -3 -55 4 -76 27 -38 42 33 13 39 12 64 -12z m-92 -26 c-6 -5 -37 -6 -70
-2 -37 4 -49 8 -30 10 66 6 76 8 82 14 4 3 11 2 17 -4 6 -6 6 -13 1 -18z m-13
-24 c15 1 29 -5 32 -13 4 -11 -2 -15 -24 -15 -17 0 -30 5 -30 10 0 6 -12 10
-26 10 -15 0 -23 4 -19 11 4 6 14 7 24 3 9 -4 28 -7 43 -6z m-122 -68 c0 -5
-2 -10 -4 -10 -3 0 -8 5 -11 10 -3 6 -1 10 4 10 6 0 11 -4 11 -10z m80 -55 c0
-8 -7 -15 -15 -15 -24 0 -18 -16 11 -29 15 -6 24 -14 21 -17 -13 -13 -86 45
-87 69 0 4 16 7 35 7 24 0 35 -5 35 -15z m380 -1 c0 -2 -7 -4 -15 -4 -8 0 -15
4 -15 10 0 5 7 7 15 4 8 -4 15 -8 15 -10z m-133 -30 c-3 -3 -12 -4 -19 -1 -8
3 -5 6 6 6 11 1 17 -2 13 -5z m258 -234 c3 -5 1 -10 -4 -10 -6 0 -11 5 -11 10
0 6 2 10 4 10 3 0 8 -4 11 -10z m180 0 c3 -5 -1 -10 -9 -10 -8 0 -18 5 -21 10
-3 6 1 10 9 10 8 0 18 -4 21 -10z m-200 -20 c3 -5 1 -10 -4 -10 -6 0 -11 5
-11 10 0 6 2 10 4 10 3 0 8 -4 11 -10z m49 -11 c-4 -8 0 -8 15 0 17 10 25 8
43 -9 24 -22 62 -30 40 -8 -21 21 -13 27 26 21 50 -8 65 -23 22 -23 -54 0 -20
-19 38 -22 25 -1 24 0 16 -22 -7 -18 -44 -22 -60 -6 -5 5 -45 10 -89 11 -107
1 -138 7 -131 25 3 8 -1 14 -10 14 -8 0 -13 4 -10 9 3 4 24 7 46 6 22 -1 40 2
40 6 0 5 5 9 11 9 5 0 7 -5 3 -11z m221 -69 c3 -5 1 -10 -4 -10 -6 0 -11 5
-11 10 0 6 2 10 4 10 3 0 8 -4 11 -10z m-356 -124 c-2 -2 -22 -7 -44 -10 -28
-4 -36 -3 -25 4 14 9 78 15 69 6z m48 -122 c-3 -3 -12 -4 -19 -1 -8 3 -5 6 6
6 11 1 17 -2 13 -5z"/>
<path d="M5117 2596 c-38 -17 -45 -24 -35 -34 6 -6 18 -12 25 -12 7 0 13 -4
13 -10 0 -5 -4 -10 -10 -10 -5 0 -10 -7 -10 -15 0 -9 6 -12 16 -8 11 4 15 1
12 -13 -2 -10 2 -19 9 -19 18 0 28 -15 11 -15 -9 0 -18 -7 -22 -15 -6 -17 2
-19 23 -6 10 6 25 4 43 -5 16 -8 33 -12 39 -9 5 4 8 1 7 -6 -2 -7 11 -17 28
-22 l32 -9 -31 -28 c-34 -30 -30 -50 11 -50 19 0 23 -3 14 -9 -10 -6 -3 -10
22 -15 39 -8 59 -26 27 -26 -12 0 -21 4 -21 9 0 6 -9 8 -21 6 -11 -2 -30 0
-43 5 -13 5 -29 4 -37 -1 -10 -6 -10 -9 -1 -9 6 0 12 -4 12 -9 0 -6 -12 -6
-31 1 -38 13 -52 2 -14 -12 15 -6 25 -13 22 -16 -8 -9 -77 7 -77 18 0 6 -6 5
-15 -2 -8 -7 -15 -8 -15 -4 0 5 -28 9 -61 9 -48 0 -64 4 -73 17 -7 11 -23 18
-43 18 -17 0 -35 5 -38 11 -4 6 -26 9 -49 7 -31 -2 -41 0 -40 12 1 11 -11 16
-40 18 -23 1 -65 7 -93 13 -29 6 -56 11 -60 11 -5 1 -35 10 -68 20 -33 10 -72
18 -87 18 -16 0 -28 5 -28 10 0 6 -12 15 -26 20 -21 8 -29 7 -39 -7 -12 -16
-15 -16 -40 10 -25 25 -74 39 -60 18 3 -5 -1 -16 -9 -24 -20 -19 -10 -27 32
-27 28 0 32 -3 23 -13 -13 -16 -5 -27 20 -27 10 0 24 -8 31 -18 7 -11 29 -22
49 -26 29 -5 35 -11 35 -29 -1 -18 4 -22 27 -20 32 2 34 -2 7 -17 -16 -9 -26
-7 -47 9 -34 28 -47 26 -39 -4 4 -14 2 -25 -4 -25 -5 0 -10 -7 -10 -15 0 -9
-11 -20 -25 -25 -30 -11 -34 -24 -5 -15 39 12 20 -13 -26 -36 -41 -19 -45 -24
-30 -34 15 -11 12 -13 -18 -19 -28 -5 -36 -12 -41 -36 -4 -19 -13 -30 -28 -32
-17 -2 -21 -9 -19 -28 3 -29 14 -37 66 -46 26 -4 41 -3 44 5 2 6 17 11 33 11
19 0 29 5 29 15 0 9 10 15 26 15 14 0 23 4 20 9 -8 13 14 19 52 14 40 -7 42
-23 2 -23 -25 0 -30 -4 -30 -25 0 -13 8 -28 18 -34 13 -8 14 -12 5 -22 -10
-10 -7 -16 19 -26 17 -7 28 -16 25 -20 -4 -3 -13 0 -21 6 -17 14 -89 9 -108
-7 -7 -6 -41 -10 -75 -11 -47 0 -73 6 -107 24 -26 14 -57 22 -73 21 -15 -2
-38 -4 -51 -5 -20 -1 -21 -3 -10 -15 8 -8 23 -15 33 -17 10 -2 20 -10 23 -18
4 -13 -21 -11 -78 5 -10 3 -16 -3 -16 -16 0 -15 10 -23 39 -31 22 -6 45 -8 53
-5 8 3 14 1 14 -4 0 -12 27 -19 101 -26 79 -7 122 -12 129 -14 3 -1 -4 -5 -15
-10 -18 -8 -17 -9 6 -9 20 -1 28 -7 31 -26 3 -13 0 -26 -6 -29 -8 -3 -7 -7 1
-13 14 -10 -62 -9 -87 1 -63 24 -100 34 -100 26 0 -6 7 -10 15 -10 8 0 15 -7
15 -16 0 -12 -3 -14 -12 -6 -7 5 -28 13 -45 17 -26 5 -33 3 -33 -9 0 -20 -7
-20 -26 -1 -9 8 -22 15 -30 15 -18 0 -18 -26 0 -33 8 -3 16 -16 18 -29 2 -13
11 -24 22 -26 13 -3 16 0 10 10 -4 7 2 5 13 -5 11 -10 24 -17 29 -16 5 1 21
-3 36 -9 16 -6 41 -9 58 -6 22 5 30 3 30 -8 0 -28 52 -61 97 -62 49 -1 53 7
21 42 l-23 25 22 -12 c12 -6 25 -16 28 -21 10 -15 25 -12 25 6 0 34 56 65 104
57 23 -4 36 -2 36 6 0 6 10 10 23 9 28 -2 160 13 170 19 4 3 3 11 -3 18 -8 9
-3 14 21 19 l32 6 -30 28 c-24 23 -39 29 -83 31 -49 1 -52 0 -39 -16 13 -15
12 -16 -6 -9 -11 5 -42 9 -70 11 -61 3 -76 9 -94 37 -13 21 -12 21 44 14 36
-4 54 -3 50 3 -3 6 -13 8 -23 5 -14 -5 -15 -4 -2 5 13 10 13 12 1 20 -12 7
-12 13 -3 24 10 11 5 16 -28 27 -27 9 -36 16 -28 21 10 6 9 9 -3 14 -8 3 -15
14 -16 25 -1 16 5 20 27 20 15 0 30 -5 32 -11 3 -8 9 -6 20 4 11 12 18 13 27
4 8 -8 11 -8 11 2 0 13 43 12 110 -4 20 -5 32 0 53 20 15 15 24 31 22 35 -3 5
1 10 7 13 15 5 7 17 -14 21 -26 6 -48 18 -43 25 2 4 -16 8 -41 10 -29 1 -52 9
-64 21 -11 11 -26 17 -35 14 -8 -4 -15 -2 -15 3 0 7 -66 10 -89 4 -14 -4 26
-31 45 -31 13 0 24 -4 24 -10 0 -20 -50 -9 -75 16 -20 20 -29 23 -40 14 -7 -6
-16 -7 -19 -2 -3 5 26 19 64 32 40 13 70 29 70 37 0 7 7 13 15 13 8 0 15 4 15
9 0 16 53 -2 58 -21 3 -12 11 -17 21 -14 24 8 116 -19 113 -33 -1 -6 2 -11 8
-11 6 0 10 -6 10 -14 0 -17 24 -28 36 -16 11 10 54 -6 54 -20 0 -5 -8 -10 -17
-10 -18 0 -10 -12 10 -16 7 -1 30 -12 51 -23 30 -16 35 -22 23 -27 -28 -10
-19 -21 25 -30 23 -5 43 -15 46 -23 3 -10 -2 -11 -19 -7 l-24 7 25 -22 c14
-12 26 -25 26 -30 1 -5 2 -14 3 -19 0 -6 20 -20 44 -31 23 -11 34 -17 25 -15
-10 3 -18 1 -18 -4 0 -10 13 -14 95 -29 28 -5 39 -9 25 -10 -14 -1 -47 -7 -75
-15 l-50 -13 28 -12 c16 -6 33 -11 38 -11 5 0 9 -4 9 -10 0 -5 11 -12 25 -16
13 -3 29 -12 36 -20 6 -8 23 -14 38 -15 23 0 24 -1 6 -9 -18 -7 -18 -9 10 -19
17 -7 58 -23 92 -37 34 -13 76 -27 93 -30 19 -4 30 -13 30 -23 0 -23 92 -66
162 -77 18 -3 48 -7 66 -10 62 -10 31 -21 -53 -20 -47 0 -85 4 -85 7 0 4 -10
5 -22 2 -17 -3 -19 -2 -10 5 11 7 9 10 -6 14 -11 3 -25 1 -31 -5 -9 -9 -17 -8
-31 1 -11 6 -37 12 -57 12 l-37 0 24 -17 c14 -9 27 -20 30 -23 3 -3 30 -7 59
-8 55 -2 78 -17 61 -37 -12 -15 -70 -6 -77 11 -3 10 -11 10 -31 3 -26 -10 -67
-16 -126 -18 -43 -1 -23 -14 26 -17 101 -6 155 -18 198 -44 25 -15 51 -29 59
-32 7 -2 -31 -3 -85 -2 -55 1 -109 6 -121 9 -28 9 -31 29 -3 22 11 -3 20 -1
20 3 0 5 8 10 18 13 9 2 -5 3 -32 2 -28 -1 -52 -7 -54 -13 -5 -16 -22 -15 -22
1 0 11 -129 57 -161 57 -8 0 -45 18 -83 40 -37 22 -72 40 -77 40 -5 0 -8 5 -6
12 2 12 -39 36 -72 43 -22 4 -107 7 -174 6 -29 -1 -46 -5 -42 -11 4 -6 -5 -10
-19 -10 -38 0 -40 -1 -55 -22 -7 -11 -19 -17 -27 -14 -9 4 -14 -2 -14 -15 0
-11 4 -18 9 -15 5 3 12 -1 15 -10 9 -24 8 -26 -14 -19 -11 4 -20 2 -20 -4 0
-6 11 -11 24 -11 14 0 27 -4 30 -9 4 -5 -3 -7 -14 -4 -11 3 -20 1 -20 -4 0 -5
-13 -8 -28 -7 -20 1 -28 -3 -29 -16 -1 -12 18 -27 59 -48 33 -16 54 -32 46
-35 -15 -5 8 -2 32 4 8 2 14 -3 15 -11 0 -18 67 -36 173 -46 42 -3 81 -12 87
-19 5 -7 19 -18 30 -24 19 -11 18 -12 -5 -7 -14 3 -36 9 -49 12 -17 5 -22 3
-19 -6 4 -14 11 -18 58 -39 22 -10 19 -11 -20 -5 -25 3 -59 7 -76 9 -17 1 -41
6 -53 10 -34 10 -24 -12 11 -24 43 -15 31 -23 -15 -9 -28 9 -40 8 -51 -1 -13
-11 -12 -16 13 -37 16 -13 32 -24 36 -24 12 0 55 -37 49 -43 -9 -9 48 -47 88
-58 67 -18 65 -4 -2 23 -73 29 -85 43 -36 43 19 0 32 -3 30 -6 -2 -4 3 -9 11
-13 8 -3 15 -1 15 5 0 12 82 2 90 -12 8 -12 58 -29 86 -29 18 0 24 -5 22 -17
-4 -23 22 -27 63 -10 27 11 30 14 16 20 -12 5 -16 3 -11 -5 5 -8 0 -9 -17 -5
-13 4 -27 7 -31 7 -5 0 -8 5 -8 11 0 6 9 8 20 4 30 -10 24 14 -6 26 -15 5 -35
7 -44 4 -10 -3 -35 1 -56 9 -22 8 -52 17 -67 20 -15 4 -25 10 -22 15 7 12 69
-3 100 -23 33 -21 52 -21 34 0 -12 15 -11 16 11 9 13 -4 45 -21 72 -37 l48
-29 45 32 c42 31 60 54 32 44 -7 -3 -48 8 -92 25 -71 27 -75 30 -36 25 25 -3
59 -13 77 -21 38 -18 82 -25 90 -13 4 7 -80 35 -160 53 -55 13 -18 16 69 7 49
-6 95 -17 104 -25 14 -13 22 -9 73 32 l58 47 -30 8 c-17 4 -30 11 -30 16 0 5
-9 11 -20 14 -11 3 -20 11 -20 17 0 9 13 11 45 7 40 -4 43 -3 28 9 -20 15 -6
19 16 5 25 -16 22 -41 -5 -41 -14 0 -22 -4 -19 -10 16 -26 53 -7 119 59 l69
69 -49 7 c-85 13 -113 39 -49 47 20 2 53 -2 73 -9 20 -7 40 -13 44 -13 13 0
70 128 66 151 -3 22 -10 25 -79 35 -51 7 -85 18 -104 32 l-28 22 29 1 c16 1
40 1 54 0 24 -2 24 -1 6 14 -11 8 -26 15 -33 15 -7 0 -13 5 -13 11 0 6 7 9 15
5 8 -3 15 -1 15 4 0 6 7 10 16 10 8 0 13 -4 10 -9 -3 -5 1 -14 9 -21 8 -7 12
-17 9 -22 -4 -6 1 -8 14 -4 13 4 22 1 26 -9 3 -8 0 -15 -7 -16 -20 -1 26 -18
52 -18 24 -1 24 0 18 67 -4 38 -15 95 -25 128 l-18 59 -49 6 c-27 3 -50 10
-53 17 -2 6 -19 16 -38 22 -48 16 -38 22 19 11 63 -11 60 2 -3 18 -57 15 -80
36 -28 26 21 -4 43 -1 61 8 l27 14 -37 6 c-65 11 -132 32 -145 46 -11 11 -10
13 5 8 15 -6 16 -3 7 13 -5 10 -19 22 -30 25 -11 3 -20 11 -20 16 0 6 5 7 10
4 23 -14 29 8 9 35 -12 15 -19 33 -15 38 3 5 -2 13 -11 16 -14 6 -15 9 -4 15
11 7 9 13 -8 30 -11 11 -21 26 -21 31 0 6 -6 10 -13 10 -7 0 -18 9 -24 20 -11
16 -10 21 5 29 13 8 14 10 2 11 -9 0 -15 10 -15 25 0 20 4 24 20 19 19 -5 19
-4 2 6 -10 7 -25 9 -33 6 -8 -3 -14 -1 -14 3 0 5 8 12 18 16 15 6 15 8 -7 26
-13 10 -31 19 -40 19 -12 0 -11 5 8 19 l23 18 -40 41 c-23 23 -44 47 -49 55
-4 7 -20 20 -35 30 -17 11 -25 23 -22 32 5 11 -1 15 -21 15 -20 0 -26 4 -21
15 7 19 2 18 -57 -9z m203 -240 c0 -11 -19 -15 -25 -6 -3 5 1 10 9 10 9 0 16
-2 16 -4z m-45 -106 c3 -5 -1 -10 -9 -10 -8 0 -18 5 -21 10 -3 6 1 10 9 10 8
0 18 -4 21 -10z m90 -21 c3 -4 -13 -7 -35 -6 -34 1 -38 4 -25 13 16 12 51 8
60 -7z m-780 -30 c16 0 14 -3 -10 -14 -44 -20 -77 -19 -73 3 2 9 11 16 21 16
9 -1 17 3 17 9 0 7 4 7 12 -1 7 -7 21 -12 33 -13z m663 4 c-4 -22 -38 -30 -49
-11 -15 22 -10 28 22 28 24 0 30 -4 27 -17z m32 7 c0 -5 -4 -10 -10 -10 -5 0
-10 5 -10 10 0 6 5 10 10 10 6 0 10 -4 10 -10z m-95 -20 c3 -5 -1 -10 -10 -10
-9 0 -13 5 -10 10 3 6 8 10 10 10 2 0 7 -4 10 -10z m152 -45 c-7 -13 -13 -20
-15 -15 -2 6 -16 10 -30 10 l-27 1 25 14 c14 8 32 14 42 15 14 0 14 -4 5 -25z
m-784 8 c-7 -2 -21 -2 -30 0 -10 3 -4 5 12 5 17 0 24 -2 18 -5z m882 -103 c-3
-5 -17 -10 -30 -10 -13 0 -27 5 -30 10 -4 6 8 10 30 10 22 0 34 -4 30 -10z
m-3 -24 c10 -1 20 -5 24 -8 3 -3 -27 -5 -66 -3 -41 1 -77 8 -83 15 -10 10 0
11 48 5 33 -4 68 -8 77 -9z m-125 -42 c12 -3 24 -13 27 -21 4 -9 2 -11 -7 -6
-15 10 -18 10 -63 12 -21 0 -33 5 -29 11 7 11 38 13 72 4z m-290 -10 c-3 -3
-12 -4 -19 -1 -8 3 -5 6 6 6 11 1 17 -2 13 -5z m403 -54 c0 -5 -5 -10 -11 -10
-5 0 -7 5 -4 10 3 6 8 10 11 10 2 0 4 -4 4 -10z m-343 -16 c-3 -3 -12 -4 -19
-1 -8 3 -5 6 6 6 11 1 17 -2 13 -5z m448 -36 c7 -7 -2 -8 -25 -3 -52 11 -72
25 -25 18 22 -3 45 -10 50 -15z m-1346 -48 c7 -4 -4 -6 -25 -5 -21 2 -40 8
-42 14 -4 12 38 6 67 -9z m226 -140 c3 -5 1 -10 -4 -10 -6 0 -11 5 -11 10 0 6
2 10 4 10 3 0 8 -4 11 -10z m72 -16 c2 -6 -3 -11 -10 -11 -8 0 -14 6 -14 14 0
15 19 12 24 -3z m1251 -21 c31 -7 28 -23 -6 -23 -17 0 -32 8 -41 21 -12 20
-11 21 6 14 10 -4 28 -10 41 -12z m-1051 -259 c-3 -3 -12 -4 -19 -1 -8 3 -5 6
6 6 11 1 17 -2 13 -5z m478 -32 c-3 -3 -11 0 -18 7 -9 10 -8 11 6 5 10 -3 15
-9 12 -12z m0 -22 c19 -8 19 -9 -2 -9 -12 -1 -25 4 -28 9 -7 12 2 12 30 0z
m-370 -30 c13 -5 14 -9 5 -9 -8 0 -24 4 -35 9 -13 5 -14 9 -5 9 8 0 24 -4 35
-9z m52 -16 c-3 -3 -12 -4 -19 -1 -8 3 -5 6 6 6 11 1 17 -2 13 -5z m660 -50
c-7 -7 -37 7 -37 17 0 6 9 5 21 -1 11 -7 19 -14 16 -16z m-64 -84 c14 -11 31
-20 38 -20 7 0 10 -3 6 -6 -6 -7 -97 32 -97 41 0 12 29 3 53 -15z m-68 -10 c3
-5 1 -10 -4 -10 -6 0 -11 5 -11 10 0 6 2 10 4 10 3 0 8 -4 11 -10z m75 -24
c18 -7 28 -16 23 -19 -5 -3 -27 3 -48 13 -46 21 -24 27 25 6z m-317 -33 c-7
-2 -21 -2 -30 0 -10 3 -4 5 12 5 17 0 24 -2 18 -5z m-223 -64 c0 -6 -4 -7 -10
-4 -5 3 -10 11 -10 16 0 6 5 7 10 4 6 -3 10 -11 10 -16z"/>
<path d="M1410 2565 c0 -2 14 -11 30 -20 30 -16 40 -9 18 13 -12 12 -48 17
-48 7z"/>
<path d="M4068 2499 c-3 -8 1 -20 8 -27 15 -14 17 -7 5 22 -6 15 -9 16 -13 5z"/>
<path d="M5060 2480 c0 -5 9 -10 20 -10 11 0 20 5 20 10 0 6 -9 10 -20 10 -11
0 -20 -4 -20 -10z"/>
<path d="M4196 2467 c3 -10 9 -15 12 -12 3 3 0 11 -7 18 -10 9 -11 8 -5 -6z"/>
<path d="M4330 2440 c0 -5 5 -10 11 -10 5 0 7 5 4 10 -3 6 -8 10 -11 10 -2 0
-4 -4 -4 -10z"/>
<path d="M5145 2346 l-30 -13 43 1 c27 0 42 5 42 13 0 16 -16 16 -55 -1z"/>
<path d="M5070 2340 c0 -5 9 -10 21 -10 11 0 17 5 14 10 -3 6 -13 10 -21 10
-8 0 -14 -4 -14 -10z"/>
<path d="M5150 2290 c-12 -8 -9 -10 13 -10 15 0 27 5 27 10 0 13 -20 13 -40 0z"/>
<path d="M3420 2183 c0 -11 38 -49 43 -42 2 2 -7 15 -20 28 -13 13 -23 20 -23
14z"/>
<path d="M2416 2155 c-3 -9 -6 -22 -5 -28 0 -7 5 -1 10 12 5 13 8 26 5 28 -2
2 -6 -3 -10 -12z"/>
<path d="M2410 2101 c0 -4 11 -13 26 -19 22 -11 24 -10 16 5 -10 17 -42 28
-42 14z"/>
<path d="M4635 2100 c-3 -5 1 -10 10 -10 9 0 13 5 10 10 -3 6 -8 10 -10 10 -2
0 -7 -4 -10 -10z"/>
<path d="M1679 2030 c0 -3 -2 -13 -4 -22 -2 -12 3 -18 15 -18 10 0 20 -5 22
-12 3 -8 9 -8 24 1 16 10 16 12 1 7 -12 -4 -21 1 -27 17 -5 12 -9 18 -10 12 0
-5 -5 -3 -10 5 -5 8 -10 13 -11 10z"/>
<path d="M2606 2021 c-5 -8 15 -30 42 -45 18 -11 15 8 -7 32 -20 24 -27 27
-35 13z"/>
<path d="M2428 2003 c7 -3 16 -2 19 1 4 3 -2 6 -13 5 -11 0 -14 -3 -6 -6z"/>
<path d="M2396 1955 c-3 -9 1 -30 9 -48 l14 -32 -6 30 c-4 17 -6 38 -5 48 1
21 -4 22 -12 2z"/>
<path d="M2430 1959 c0 -15 18 -19 23 -6 3 8 -1 14 -9 14 -8 0 -14 -4 -14 -8z"/>
<path d="M2610 1959 c0 -5 5 -7 10 -4 6 3 10 8 10 11 0 2 -4 4 -10 4 -5 0 -10
-5 -10 -11z"/>
<path d="M4005 1963 c11 -3 23 -10 26 -15 3 -5 9 -3 12 6 5 13 0 16 -26 15
-21 -1 -25 -3 -12 -6z"/>
<path d="M5594 1951 c17 -11 34 -17 39 -14 13 8 -4 21 -38 28 l-30 7 29 -21z"/>
<path d="M4385 1950 c-19 -8 -19 -9 3 -9 12 -1 22 4 22 9 0 6 -1 10 -2 9 -2 0
-12 -4 -23 -9z"/>
<path d="M4148 1943 c6 -2 18 -2 25 0 6 3 1 5 -13 5 -14 0 -19 -2 -12 -5z"/>
<path d="M2370 1912 c0 -7 -14 -26 -31 -43 -17 -16 -28 -36 -25 -44 2 -7 -4
-23 -15 -36 -27 -32 -24 -54 16 -98 19 -21 35 -42 35 -45 0 -4 11 -22 25 -40
14 -18 25 -44 25 -58 0 -28 50 -81 78 -83 10 0 31 -11 47 -23 20 -16 26 -28
22 -44 -4 -12 -1 -28 4 -35 14 -16 -9 -71 -33 -79 -10 -3 -18 -10 -18 -15 0
-5 -9 -9 -19 -9 -11 0 -21 -6 -24 -12 -4 -10 -7 -10 -17 -1 -10 10 -20 9 -44
-5 -17 -9 -34 -21 -37 -26 -4 -4 -9 -2 -11 5 -4 11 -9 11 -24 -2 -10 -9 -25
-14 -33 -11 -7 2 -17 -2 -22 -9 -6 -10 -9 -11 -9 -1 0 6 -7 12 -15 12 -8 0
-15 -7 -15 -16 0 -8 -5 -12 -10 -9 -14 8 -40 -19 -40 -42 0 -15 -2 -16 -10 -3
-9 13 -12 13 -21 -3 -10 -17 -11 -17 -23 -1 -9 11 -21 15 -35 11 -16 -4 -21
-1 -22 16 l0 22 -11 -22 c-10 -21 -12 -21 -23 -6 -21 28 -35 5 -35 -57 0 -62
7 -90 21 -90 5 0 9 8 10 18 0 13 2 12 9 -5 5 -13 15 -23 23 -23 7 0 23 -9 35
-20 12 -11 25 -20 30 -20 25 0 71 -70 152 -230 24 -47 50 -93 58 -102 11 -14
41 -178 42 -234 0 -14 40 -31 92 -40 21 -3 35 -10 33 -15 -3 -4 7 -8 22 -7 15
0 66 -13 113 -30 62 -23 86 -28 92 -19 5 8 12 6 23 -8 14 -18 14 -18 9 -1 -6
16 -4 17 14 7 19 -10 22 -9 19 8 -4 23 -17 41 -17 22 0 -7 -9 -9 -27 -5 -42
10 -49 17 -27 25 31 12 74 10 74 -3 1 -15 35 -58 45 -58 4 0 2 7 -5 15 -17 20
4 20 24 -1 9 -9 16 -11 16 -4 0 6 4 9 9 6 5 -3 23 1 40 10 27 13 34 14 48 2 9
-7 14 -8 10 -2 -7 12 34 24 79 24 13 0 24 4 24 9 0 4 18 11 41 14 23 3 52 16
66 29 29 26 57 84 48 98 -4 6 -1 10 5 10 7 0 10 6 7 14 -3 8 1 17 9 20 8 3 14
12 14 21 0 8 4 15 10 15 5 0 7 7 4 15 -4 11 0 15 17 15 12 0 19 3 16 7 -9 8
22 43 38 43 6 0 17 10 24 23 29 54 41 71 41 58 0 -7 18 6 40 30 22 24 40 50
40 56 0 7 4 13 9 13 5 0 13 15 17 33 7 31 8 31 14 7 6 -24 7 -24 15 10 5 23 4
35 -4 38 -6 2 -11 12 -11 21 0 20 -76 191 -85 191 -3 0 -3 -12 0 -27 l6 -28
-14 30 c-8 17 -24 36 -36 43 -18 10 -21 10 -21 -5 0 -15 -2 -14 -15 3 -10 14
-9 2 5 -46 11 -36 22 -94 25 -130 l4 -65 -9 60 c-13 82 -39 165 -50 165 -6 0
-8 -12 -4 -27 l6 -28 -17 30 c-29 53 -38 54 -31 5 5 -38 4 -41 -5 -19 -7 18
-17 27 -32 26 -12 0 -30 3 -40 8 -14 6 -16 4 -11 -11 4 -12 -6 -6 -26 15 -25
26 -31 29 -25 12 5 -16 3 -20 -8 -15 -10 3 -17 -2 -20 -13 -4 -14 -5 -13 -6 5
0 13 -5 20 -11 17 -5 -3 -10 1 -10 11 0 11 -6 15 -20 11 -11 -3 -20 -1 -20 4
0 5 -8 9 -17 9 -9 0 -25 8 -35 17 -17 15 -21 15 -29 3 -8 -13 -10 -13 -19 0
-5 8 -10 11 -10 6 0 -6 -9 0 -21 13 -16 17 -24 19 -34 11 -9 -8 -15 -8 -20 0
-3 6 -11 8 -16 5 -5 -4 -9 -1 -9 5 0 7 -6 10 -14 7 -7 -3 -25 1 -40 8 -14 8
-26 12 -26 9 0 -3 -7 1 -15 9 -8 9 -23 13 -34 10 -13 -3 -21 2 -26 16 -3 12
-11 21 -17 21 -5 0 -7 7 -4 16 4 12 2 15 -9 10 -23 -8 -50 61 -35 90 11 20 66
58 85 59 5 0 18 17 27 37 10 20 27 43 38 51 11 7 17 17 13 20 -3 4 0 7 8 7 24
0 150 136 143 154 -3 9 -9 16 -13 16 -4 0 -15 20 -25 44 -10 24 -29 50 -42 57
-13 7 -24 16 -24 21 0 4 -4 8 -10 8 -5 0 -10 -6 -10 -14 0 -9 -7 -12 -19 -9
-11 3 -21 -2 -25 -12 -3 -9 -2 -13 4 -10 6 3 10 2 10 -4 0 -16 -43 -36 -48
-22 -2 6 -12 11 -23 11 -11 0 -19 7 -19 16 0 8 5 12 10 9 6 -3 10 -1 10 4 0
14 -13 14 -28 -1 -9 -9 -12 -9 -12 1 0 8 -6 11 -15 7 -10 -3 -15 1 -16 12 0
10 -3 12 -6 4 -2 -6 -9 -10 -14 -6 -5 3 -10 -5 -10 -18 -1 -18 -2 -19 -6 -5
-3 12 -10 16 -24 12 -13 -4 -19 -2 -19 9 0 8 -5 18 -12 22 -8 5 -9 0 -5 -15 3
-13 3 -20 0 -17 -4 3 -13 0 -21 -7 -13 -9 -14 -9 -8 1 4 7 1 12 -8 12 -9 0
-16 4 -16 10 0 5 -7 7 -15 4 -8 -4 -15 -2 -15 4 0 5 -7 13 -16 16 -8 3 -13 2
-11 -2 6 -10 -7 -44 -17 -42 -5 1 -13 -4 -18 -12 -6 -10 -13 -8 -29 11 -11 13
-18 30 -15 36 2 7 0 18 -5 26 -6 10 -9 11 -9 1z m121 -85 c-16 -16 -25 -1 -10
16 8 8 16 11 18 5 2 -5 -2 -15 -8 -21z m39 -3 c0 -8 -5 -12 -10 -9 -6 4 -8 11
-5 16 9 14 15 11 15 -7z m60 -19 c0 -5 -5 -3 -10 5 -5 8 -10 20 -10 25 0 6 5
3 10 -5 5 -8 10 -19 10 -25z m43 -1 c21 -28 16 -45 -6 -23 -16 17 -29 49 -19
49 4 0 15 -12 25 -26z m21 -53 c3 -4 3 -11 0 -14 -8 -8 -34 3 -34 14 0 11 27
12 34 0z m256 -46 c0 -8 -4 -15 -9 -15 -13 0 -22 16 -14 24 11 11 23 6 23 -9z
m-265 -5 c3 -5 1 -10 -4 -10 -6 0 -11 5 -11 10 0 6 2 10 4 10 3 0 8 -4 11 -10z
m129 -105 c-25 -19 -40 -19 -24 0 7 8 20 15 28 15 13 0 12 -3 -4 -15z m-430
-401 c3 -8 2 -12 -4 -9 -6 3 -10 10 -10 16 0 14 7 11 14 -7z m214 -174 c8 -8
11 -9 7 -2 -8 16 4 15 104 -7 46 -10 86 -23 90 -29 3 -6 15 -9 26 -8 11 2 32
-3 48 -11 21 -11 27 -11 27 -1 1 8 5 7 14 -4 15 -20 28 -14 19 10 -4 9 3 6 17
-8 22 -22 24 -22 30 -5 6 18 7 18 14 0 6 -16 9 -17 16 -5 6 8 10 10 10 5 0 -6
21 -11 48 -10 26 0 50 -3 53 -8 4 -5 16 -4 29 3 17 9 25 9 39 -4 10 -9 21 -13
24 -9 4 3 7 -4 7 -16 0 -23 0 -23 27 -6 26 17 27 17 45 -5 36 -44 15 -107 -42
-125 -10 -3 -22 -19 -25 -35 -6 -29 -74 -129 -115 -170 -12 -12 -20 -33 -20
-55 0 -19 -5 -45 -11 -59 -12 -26 -60 -52 -82 -43 -7 3 -24 -1 -38 -9 -13 -7
-38 -13 -56 -14 -17 0 -34 -6 -37 -12 -3 -10 -9 -8 -19 4 -8 10 -17 15 -21 11
-3 -3 -17 4 -30 16 l-24 23 -7 -22 c-5 -17 -10 -19 -21 -9 -11 9 -14 8 -14 -5
0 -20 -16 -21 -23 -2 -3 7 -23 17 -44 21 -21 4 -44 12 -51 17 -9 8 -11 7 -6
-6 4 -11 1 -16 -14 -16 -11 0 -43 25 -75 59 -41 45 -56 69 -60 98 -2 21 -12
66 -22 101 -17 62 -17 65 6 155 12 51 22 100 21 110 0 9 3 17 8 17 5 0 17 14
25 30 9 17 20 28 26 24 6 -3 13 3 16 14 6 24 41 26 61 2z m919 -27 c-3 -10 -5
-4 -5 12 0 17 2 24 5 18 2 -7 2 -21 0 -30z m24 -100 c-8 -15 -10 -15 -11 -2 0
17 10 32 18 25 2 -3 -1 -13 -7 -23z m-72 -100 c0 -25 -1 -25 -8 -8 -5 11 -7
23 -4 28 8 14 13 7 12 -20z m31 -9 c0 -8 -5 -12 -10 -9 -6 4 -8 11 -5 16 9 14
15 11 15 -7z"/>
<path d="M1605 1900 c3 -5 16 -10 28 -10 18 0 19 2 7 10 -20 13 -43 13 -35 0z"/>
<path d="M2620 1879 c0 -5 5 -7 10 -4 6 3 10 8 10 11 0 2 -4 4 -10 4 -5 0 -10
-5 -10 -11z"/>
<path d="M4530 1872 c0 -4 10 -9 22 -9 18 -2 20 0 8 7 -18 12 -30 13 -30 2z"/>
<path d="M3950 1840 c0 -4 7 -11 16 -14 22 -9 26 -8 22 6 -5 13 -38 20 -38 8z"/>
<path d="M5690 1842 c0 -5 11 -12 25 -15 16 -3 24 0 22 7 -4 14 -47 21 -47 8z"/>
<path d="M3820 1831 c0 -10 9 -13 53 -15 10 -1 22 -7 26 -15 7 -10 9 -9 14 3
7 17 6 17 -33 21 -14 1 -33 6 -42 10 -11 4 -18 3 -18 -4z"/>
<path d="M3930 1800 c0 -5 9 -10 20 -10 11 0 20 5 20 10 0 6 -9 10 -20 10 -11
0 -20 -4 -20 -10z"/>
<path d="M964 1645 c4 -10 -1 -15 -14 -15 -11 0 -20 -4 -20 -9 0 -10 -5 -13
-99 -64 -28 -15 -51 -31 -51 -35 1 -4 11 -20 24 -36 l24 -29 38 21 c22 12 91
44 154 71 79 35 107 51 90 52 -14 1 -29 3 -35 4 -5 2 -14 3 -19 4 -6 0 -1 7
10 15 25 19 20 22 -50 30 -50 5 -57 4 -52 -9z"/>
<path d="M1248 1601 c-37 -18 -36 -34 2 -26 17 4 30 3 30 -2 0 -11 -59 -48
-90 -57 l-25 -7 25 20 25 20 -25 -6 -25 -6 25 21 25 20 -30 -5 c-58 -9 -250
-74 -302 -101 l-52 -27 70 -95 c39 -52 76 -103 84 -113 12 -18 20 -14 124 58
63 43 108 81 105 87 -4 6 -1 9 7 6 8 -3 30 5 49 17 19 12 57 32 83 44 27 13
51 31 55 40 3 9 14 27 24 40 10 13 16 27 13 31 -3 4 5 10 17 13 12 4 20 8 18
11 -7 6 -96 -18 -140 -38 l-35 -15 45 -1 c42 -2 43 -2 18 -12 -16 -5 -28 -14
-28 -19 0 -6 -4 -7 -10 -4 -5 3 -10 2 -10 -4 0 -15 -82 -28 -131 -21 -34 5
-39 8 -24 14 11 4 47 20 80 36 56 27 131 61 165 73 10 4 7 6 -7 6 -13 1 -23 6
-23 12 0 14 -96 7 -132 -10z"/>
<path d="M4780 1543 c0 -18 17 -25 64 -28 64 -3 91 15 44 30 -41 12 -108 11
-108 -2z"/>
<path d="M1395 1420 c-3 -5 -1 -10 4 -10 6 0 11 5 11 10 0 6 -2 10 -4 10 -3 0
-8 -4 -11 -10z"/>
<path d="M4155 1420 c3 -5 11 -10 16 -10 6 0 7 5 4 10 -3 6 -11 10 -16 10 -6
0 -7 -4 -4 -10z"/>
<path d="M1337 1408 c-15 -5 -25 -13 -22 -18 3 -5 -12 -14 -32 -20 -21 -7 -45
-18 -53 -25 -8 -6 -41 -26 -73 -44 -31 -18 -55 -37 -52 -42 4 -5 -1 -6 -9 -3
-9 3 -16 2 -16 -3 0 -5 -13 -17 -30 -26 -16 -10 -30 -22 -30 -27 0 -4 23 -36
51 -70 l52 -61 28 27 c22 21 26 31 18 41 -6 7 -18 13 -26 13 -8 0 -11 5 -8 11
5 7 15 5 32 -6 24 -16 25 -16 19 3 -5 14 4 31 30 58 21 22 34 33 30 27 -11
-20 2 -15 27 8 l22 21 -24 -7 c-23 -7 -22 -5 9 33 29 33 36 37 48 26 17 -18
24 -17 48 1 22 17 38 20 29 5 -11 -18 15 -10 56 17 40 27 40 27 17 39 -28 15
-74 8 -111 -19 -37 -26 -46 -15 -13 17 31 28 24 38 -17 24z"/>
<path d="M4104 1386 c20 -17 24 -25 15 -29 -15 -5 31 -27 56 -27 22 0 -11 56
-38 65 -55 18 -63 16 -33 -9z"/>
<path d="M5358 1403 c7 -3 16 -2 19 1 4 3 -2 6 -13 5 -11 0 -14 -3 -6 -6z"/>
<path d="M5408 1403 c6 -2 18 -2 25 0 6 3 1 5 -13 5 -14 0 -19 -2 -12 -5z"/>
<path d="M5515 1380 c3 -5 10 -10 16 -10 5 0 9 5 9 10 0 6 -7 10 -16 10 -8 0
-12 -4 -9 -10z"/>
<path d="M1515 1338 c-27 -10 -28 -12 -10 -19 19 -7 19 -8 -2 -8 -34 -1 -28
-21 5 -21 35 0 45 9 31 27 -9 10 -8 13 5 13 9 0 16 5 16 10 0 12 -6 12 -45 -2z"/>
<path d="M4448 1323 c7 -3 16 -2 19 1 4 3 -2 6 -13 5 -11 0 -14 -3 -6 -6z"/>
<path d="M4500 1320 c0 -5 10 -10 23 -10 18 0 19 2 7 10 -19 13 -30 13 -30 0z"/>
<path d="M4410 1306 c0 -3 9 -10 20 -16 11 -6 20 -8 20 -6 0 3 -9 10 -20 16
-11 6 -20 8 -20 6z"/>
<path d="M4560 1286 c0 -2 9 -6 20 -9 11 -3 18 -1 14 4 -5 9 -34 13 -34 5z"/>
<path d="M4355 1250 c3 -5 8 -10 11 -10 2 0 4 5 4 10 0 6 -5 10 -11 10 -5 0
-7 -4 -4 -10z"/>
<path d="M1840 1220 c0 -5 5 -10 10 -10 6 0 10 5 10 10 0 6 -4 10 -10 10 -5 0
-10 -4 -10 -10z"/>
<path d="M1894 1193 c3 -7 0 -12 -6 -10 -6 1 -13 -4 -15 -10 -3 -7 0 -13 7
-13 6 0 8 -4 5 -10 -3 -5 -4 -10 -2 -10 3 0 14 15 24 33 19 32 19 33 1 33 -11
0 -16 -6 -14 -13z"/>
<path d="M1964 1192 c-25 -17 -40 -103 -14 -87 4 3 6 -3 3 -14 -3 -11 2 -21
11 -24 12 -5 16 0 17 21 1 15 2 46 3 70 2 43 -1 47 -20 34z"/>
<path d="M3597 1187 c-3 -7 17 -44 43 -82 63 -93 71 -92 159 11 16 20 -25 48
-74 50 -23 1 -53 7 -65 14 -32 17 -58 20 -63 7z m143 -127 c0 -5 -4 -10 -10
-10 -5 0 -10 5 -10 10 0 6 5 10 10 10 6 0 10 -4 10 -10z"/>
<path d="M3528 1177 c12 -16 35 -98 29 -104 -3 -2 -8 9 -12 26 -9 41 -42 65
-62 46 -12 -12 -7 -27 32 -105 25 -49 51 -89 58 -87 8 1 11 -8 9 -25 -4 -40
15 -43 29 -4 7 19 21 37 31 39 25 7 23 32 -8 97 -33 70 -67 116 -94 123 -15 4
-19 2 -12 -6z m39 -189 c-3 -7 -5 -2 -5 12 0 14 2 19 5 13 2 -7 2 -19 0 -25z"/>
<path d="M1220 1119 c-19 -10 -45 -28 -57 -41 l-23 -22 32 -33 c18 -18 37 -33
42 -32 18 1 67 66 72 95 4 23 2 26 -16 21 -22 -6 -26 3 -8 21 16 16 0 13 -42
-9z"/>
<path d="M3655 1040 c14 -27 28 -50 30 -50 3 0 -6 23 -20 50 -14 28 -28 50
-30 50 -3 0 6 -22 20 -50z"/>
<path d="M4764 1025 c11 -8 27 -15 35 -15 13 1 12 4 -3 15 -11 8 -27 15 -35
15 -13 -1 -12 -4 3 -15z"/>
<path d="M4746 1006 c10 -8 21 -12 24 -10 5 6 -21 24 -34 24 -6 0 -1 -6 10
-14z"/>
<path d="M1287 984 c-28 -24 -28 -26 -13 -49 9 -14 18 -25 20 -25 4 0 56 89
56 94 0 1 -8 2 -17 3 -10 1 -31 -10 -46 -23z"/>
<path d="M4816 1003 c-3 -3 2 -12 12 -19 32 -24 3 -26 -64 -5 -59 18 -123 29
-86 14 6 -2 12 -9 12 -14 0 -6 -6 -7 -12 -3 -10 6 -10 4 0 -7 18 -19 15 -27
-10 -27 -13 -1 -47 -2 -76 -3 l-52 -1 27 -27 c87 -85 164 -142 212 -158 34
-11 47 -19 39 -24 -7 -5 -23 -2 -35 7 -31 20 -29 8 5 -25 l27 -27 37 21 36 20
-26 13 c-14 6 -33 12 -41 12 -19 1 -61 30 -43 30 13 0 87 -26 113 -40 15 -8
49 4 39 13 -14 13 -135 55 -143 50 -6 -3 -7 -1 -3 5 3 6 -4 18 -16 26 -34 24
-15 29 45 12 74 -22 77 -21 37 14 -32 29 -33 30 -10 25 19 -5 22 -4 10 4 -8 6
-24 11 -36 11 -11 0 -31 11 -44 25 -14 15 -18 25 -10 25 7 0 18 -7 24 -16 7
-8 32 -18 56 -21 44 -6 45 -6 28 14 -19 21 -25 58 -8 48 6 -4 8 -10 5 -15 -3
-5 4 -14 16 -21 l22 -11 -22 31 c-24 33 -54 54 -65 44z m-97 -139 c14 -12 -19
-1 -35 12 -18 14 -18 14 6 3 14 -6 27 -13 29 -15z"/>
<path d="M1376 973 c-4 -5 -12 -8 -17 -8 -17 0 -13 -20 5 -23 18 -4 46 14 46
29 0 11 -24 12 -34 2z"/>
<path d="M1440 935 c0 -8 -7 -15 -16 -15 -8 0 -12 5 -9 10 3 6 -1 10 -9 10 -9
0 -13 -6 -10 -14 3 -9 -4 -13 -23 -14 -69 -2 -70 -3 -18 -49 l50 -43 21 44
c26 55 35 86 23 86 -5 0 -9 -7 -9 -15z"/>
<path d="M4470 923 c0 -5 19 -21 41 -38 39 -29 65 -62 56 -71 -2 -2 -15 6 -29
19 -13 12 -33 23 -44 23 -10 0 -29 4 -41 8 -17 5 -23 3 -23 -8 0 -21 34 -40
95 -56 28 -7 57 -19 66 -27 8 -7 20 -13 25 -13 5 0 2 4 -6 10 -24 15 -6 21 29
9 18 -6 35 -8 39 -4 12 12 -134 135 -160 135 -10 0 -18 5 -18 10 0 6 -7 10
-15 10 -8 0 -15 -3 -15 -7z"/>
<path d="M5080 900 c8 -5 22 -10 30 -10 13 0 13 1 0 10 -8 5 -22 10 -30 10
-13 0 -13 -1 0 -10z"/>
<path d="M1502 879 c-52 -26 -67 -73 -32 -101 12 -10 26 -16 31 -13 4 3 13 -4
19 -15 9 -16 15 -18 30 -10 29 15 25 28 -12 39 -31 9 -31 10 -10 16 12 4 22
14 22 21 0 8 5 14 10 14 6 0 10 5 10 10 0 6 -3 9 -7 9 -23 -4 -25 3 -6 14 22
12 22 13 4 24 -15 9 -27 8 -59 -8z m15 -35 c-3 -3 -12 -4 -19 -1 -8 3 -5 6 6
6 11 1 17 -2 13 -5z"/>
<path d="M5073 864 c3 -4 21 -8 39 -10 24 -3 29 -1 18 6 -16 11 -67 14 -57 4z"/>
<path d="M4374 831 c21 -23 26 -26 26 -11 0 5 -10 15 -22 21 -23 12 -23 12 -4
-10z"/>
<path d="M4260 790 c0 -14 39 -32 53 -24 8 5 7 2 -2 -9 -11 -15 -10 -18 13
-27 14 -5 26 -11 26 -13 0 -6 -113 0 -154 8 l-38 8 18 -22 c10 -11 29 -21 41
-21 13 0 23 -5 23 -11 0 -11 -6 -10 -68 7 l-22 6 17 -33 c10 -18 27 -41 38
-52 11 -10 14 -16 8 -12 -15 7 -17 -4 -3 -25 6 -9 10 -10 10 -3 0 8 9 9 30 3
18 -5 30 -5 30 1 0 5 -6 9 -12 9 -10 0 -9 3 1 9 10 6 11 13 2 29 -12 23 0 39
20 26 6 -3 15 -1 19 6 4 6 19 13 34 13 32 2 33 10 4 25 -20 11 -19 11 12 6 19
-3 39 -10 45 -15 5 -5 14 -9 20 -9 5 0 3 5 -5 10 -13 8 -12 10 3 10 10 0 20
-6 23 -14 5 -12 11 -12 37 -1 18 7 39 11 47 8 8 -2 4 2 -9 10 -28 16 -18 26
22 22 18 -2 27 1 27 11 0 8 8 14 18 14 31 1 -28 37 -72 45 -82 14 -216 16
-216 3 0 -9 -3 -9 -12 0 -14 14 -28 16 -28 2z m295 -40 c3 -5 1 -10 -4 -10 -6
0 -11 5 -11 10 0 6 2 10 4 10 3 0 8 -4 11 -10z"/>
<path d="M4920 781 c0 -11 40 -22 54 -14 5 4 1 10 -10 14 -27 11 -44 11 -44 0z"/>
<path d="M4215 751 c2 -5 18 -8 36 -9 17 0 28 2 25 6 -9 9 -67 11 -61 3z"/>
<path d="M1582 733 l-23 -16 61 -39 c33 -21 65 -38 70 -38 15 0 88 40 101 56
10 12 9 13 -7 7 -10 -3 -22 -11 -26 -17 -5 -6 -8 -2 -8 10 0 11 -3 23 -6 26
-9 10 -94 -23 -94 -35 0 -7 -5 -4 -11 7 -13 20 2 36 34 36 9 0 17 4 17 8 0 16
-84 11 -108 -5z"/>
<path d="M4714 735 c11 -8 22 -12 25 -9 6 6 -19 24 -34 24 -5 -1 -1 -7 9 -15z"/>
<path d="M4598 713 c7 -3 16 -2 19 1 4 3 -2 6 -13 5 -11 0 -14 -3 -6 -6z"/>
<path d="M1784 660 c-31 -12 -37 -26 -18 -45 11 -11 25 -14 43 -10 l26 6 -23
-17 c-33 -23 -14 -36 31 -22 25 8 33 14 25 20 -10 6 -10 8 -1 8 10 0 10 6 1
26 -12 25 -16 26 -63 9 -18 -6 -18 -5 -2 5 17 11 24 31 10 29 -5 0 -18 -4 -29
-9z"/>
<path d="M4100 659 c0 -5 -7 -6 -15 -3 -13 5 -17 -1 -14 -22 0 -4 -5 -11 -13
-15 -10 -7 -9 -9 3 -9 9 0 16 -7 15 -16 -1 -19 60 -55 80 -47 15 6 10 47 -10
72 -6 8 -10 16 -9 17 1 2 0 10 -3 17 -5 15 -34 19 -34 6z"/>
<path d="M1712 628 c6 -18 28 -21 28 -4 0 9 -7 16 -16 16 -9 0 -14 -5 -12 -12z"/>
<path d="M1928 603 c7 -3 16 -2 19 1 4 3 -2 6 -13 5 -11 0 -14 -3 -6 -6z"/>
<path d="M3992 589 c2 -6 18 -17 37 -25 20 -9 31 -10 29 -3 -2 6 -18 17 -37
25 -20 9 -31 10 -29 3z"/>
<path d="M4290 590 c0 -5 4 -10 9 -10 6 0 13 5 16 10 3 6 -1 10 -9 10 -9 0
-16 -4 -16 -10z"/>
<path d="M4330 590 c0 -6 7 -10 15 -10 8 0 15 2 15 4 0 2 -7 6 -15 10 -8 3
-15 1 -15 -4z"/>
<path d="M2004 565 c-10 -8 -14 -15 -8 -15 5 0 19 7 30 15 10 8 14 15 8 15 -5
0 -19 -7 -30 -15z"/>
<path d="M3943 536 c7 -19 -13 -22 -31 -4 -9 9 -12 8 -12 -4 0 -24 11 -48 21
-48 13 0 109 -64 109 -72 0 -13 -17 -9 -30 7 -7 8 -18 15 -25 15 -7 0 -24 9
-38 20 l-26 20 2 -78 1 -79 31 10 c16 6 44 16 60 23 17 7 41 15 55 18 14 3 35
14 47 26 12 11 27 20 34 20 8 0 8 4 -1 15 -7 8 -16 15 -21 15 -5 0 -6 -7 -3
-15 9 -22 -16 -18 -46 6 -24 20 -24 20 -2 9 13 -6 27 -8 30 -4 4 4 2 9 -5 11
-24 9 -63 45 -58 54 4 5 1 9 -6 9 -6 0 -17 7 -23 14 -6 8 -24 18 -40 22 -25 6
-28 4 -23 -10z"/>
<path d="M4040 530 c8 -5 20 -10 25 -10 6 0 3 5 -5 10 -8 5 -19 10 -25 10 -5
0 -3 -5 5 -10z"/>
<path d="M2000 491 c-25 -24 -28 -30 -14 -35 25 -10 29 -8 47 23 30 51 14 57
-33 12z"/>
<path d="M3707 446 c10 -12 27 -29 38 -38 20 -17 20 -18 -5 -18 -15 0 -31 5
-38 12 -9 9 -15 9 -23 1 -13 -13 5 -53 24 -53 7 0 18 -13 24 -30 7 -19 8 -30
1 -30 -5 0 -3 -7 6 -15 18 -18 35 -19 59 0 11 7 26 11 35 7 11 -4 7 5 -11 27
-15 18 -24 37 -21 43 3 5 -2 16 -12 23 -26 20 -4 19 25 -1 16 -11 19 -19 11
-24 -8 -5 -4 -16 13 -36 20 -23 27 -26 39 -16 8 6 17 10 19 7 3 -2 6 25 7 60
3 56 1 65 -18 75 -12 6 -26 9 -33 7 -7 -2 -21 0 -31 6 -16 8 -18 6 -13 -7 9
-23 -16 -20 -37 3 -11 12 -30 19 -47 19 -29 -1 -29 -2 -12 -22z m179 -113 c-7
-7 -26 7 -26 19 0 6 6 6 15 -2 9 -7 13 -15 11 -17z"/>
<path d="M2051 446 c-24 -13 -23 -14 45 -54 48 -28 71 -37 76 -29 12 19 9 30
-6 24 -8 -3 -19 5 -26 19 -8 13 -19 24 -27 24 -7 0 -13 7 -13 15 0 18 -17 19
-49 1z"/>
<path d="M4160 454 c0 -2 9 -8 20 -14 11 -6 20 -7 20 -2 0 6 -9 12 -20 15 -11
3 -20 3 -20 1z"/>
<path d="M4212 448 c3 -7 12 -14 21 -16 12 -2 15 1 11 12 -7 19 -38 22 -32 4z"/>
<path d="M2185 359 c-8 -12 -11 -9 44 -44 34 -21 45 -24 52 -14 9 15 -7 29
-33 29 -12 0 -15 5 -11 17 5 12 2 15 -10 10 -9 -3 -17 -2 -17 3 0 13 -17 13
-25 -1z"/>
<path d="M3640 345 c0 -15 -2 -16 -17 -4 -15 13 -15 12 -4 -9 12 -23 12 -23
-14 -6 l-26 17 7 -29 c13 -54 36 -84 66 -84 15 0 28 5 28 11 0 5 4 8 9 5 5 -4
17 -3 27 1 16 6 16 7 0 19 -10 7 -16 19 -14 27 2 7 -12 26 -29 41 -27 23 -33
25 -33 11z"/>
<path d="M3527 303 c-3 -5 3 -24 14 -42 l20 -33 -32 23 c-18 13 -29 17 -24 9
6 -10 4 -12 -9 -7 -13 5 -15 3 -7 -11 5 -9 19 -26 30 -36 20 -18 22 -18 39 -3
10 10 24 17 30 17 7 0 12 6 12 13 0 18 -66 81 -73 70z"/>
<path d="M3420 223 c0 -2 5 -13 10 -24 11 -19 10 -19 -25 1 -19 11 -35 15 -35
9 0 -8 16 -46 25 -56 3 -5 110 29 118 37 5 4 3 11 -4 16 -15 9 -89 23 -89 17z"/>
<path d="M3310 192 c0 -6 5 -14 10 -17 6 -3 10 -15 10 -27 0 -14 5 -18 16 -14
9 3 21 6 27 6 6 0 2 8 -9 18 -40 35 -54 44 -54 34z"/>
<path d="M3236 125 c5 -13 14 -16 38 -11 42 9 53 23 16 23 -16 0 -30 -5 -30
-10 0 -5 -7 -4 -15 3 -13 11 -14 10 -9 -5z"/>
<path d="M3163 100 c-2 -24 -4 -23 36 -9 24 9 29 14 19 20 -24 16 -54 10 -55
-11z"/>
<path d="M3100 71 c0 -5 9 -7 20 -4 11 3 20 7 20 9 0 2 -9 4 -20 4 -11 0 -20
-4 -20 -9z"/>
<path d="M2640 10 c0 -6 7 -10 15 -10 8 0 15 2 15 4 0 2 -7 6 -15 10 -8 3 -15
1 -15 -4z"/>
</g>
</svg>
