<?xml version="1.0" encoding="utf-8"?>
<!-- Generator: Adobe Illustrator 16.0.0, SVG Export Plug-In . SVG Version: 6.00 Build 0)  -->
<!DOCTYPE svg PUBLIC "-//W3C//DTD SVG 1.1//EN" "http://www.w3.org/Graphics/SVG/1.1/DTD/svg11.dtd">
<svg version="1.1" id="Calque_1" xmlns="http://www.w3.org/2000/svg" xmlns:xlink="http://www.w3.org/1999/xlink" x="0px" y="0px"
	 width="997.222px" height="297.223px" viewBox="0 0 997.222 297.223" enable-background="new 0 0 997.222 297.223"
	 xml:space="preserve">
<text transform="matrix(1 0 0 1 129.0396 182.2012)" fill="#010101" stroke="#010101" stroke-miterlimit="10" font-family="'ArialMT'" font-size="69.605">Le petit chat de gauche</text>
<g>
	<g>
		<path fill="#00A04F" d="M516.667,53.611c-108.921-7.614-222.686-19.061-329.054,12.536c-24.354,7.234-48.776,16.698-70.134,30.625
			c-17.352,11.315-31.477,26.433-37.985,46.387c-6.666,20.436-5.361,45.467,3,65.17c7.303,17.208,22.851,28.091,39.664,34.817
			c18.116,7.247,37.965,9.689,57.112,12.681c26.677,4.168,52.999,9.289,79.956,11.582c31.612,2.688,63.372,3.121,95.074,3.76
			c32.121,0.648,64.096,2.132,96.141,4.418c65.5,4.673,131.051,9.047,196.738,9.632c37.107,0.33,74.205-0.751,110.984-6.031
			c36.41-5.228,74.923-14.739,104.966-36.969c24.912-18.433,43.422-48.492,40.014-80.43c-5.841-54.732-71.164-76.37-116.347-87.544
			C720.837,57.932,651.843,53.92,584.178,51.333c-32.668-1.249-65.435-1.259-98.067-3.277c-9.665-0.598-9.607,14.406,0,15
			c22.975,1.421,46.031,1.631,69.035,2.309c32.34,0.952,64.674,2.276,96.944,4.66c34.159,2.523,68.289,6.19,101.975,12.493
			c29.298,5.482,59.679,13.026,85.802,25.813c11.092,5.43,21.184,11.768,29.341,19.309c1.927,1.781,3.754,3.668,5.505,5.623
			c2.514,2.807,2.454,2.792,4.302,5.455c1.41,2.032,2.675,4.161,3.837,6.342c0.576,1.081,1.103,2.187,1.61,3.301
			c0.853,1.868-0.573-1.444,0.2,0.458c0.307,0.755,0.585,1.521,0.859,2.289c0.829,2.319,1.47,4.702,1.992,7.106
			c0.266,1.222,0.471,2.455,0.656,3.691c-0.246-1.644,0.197,2.319,0.245,3.072c0.169,2.636,0.126,5.281-0.03,7.916
			c-0.226,3.803-0.288,3.938-1.025,7.733c-3.113,16.016-11.627,30.119-23.284,41.361c-25.869,24.947-64.043,34.904-98.424,40.915
			c-34.181,5.977-69.08,7.343-103.72,7.377c-65.313,0.063-130.531-3.988-195.655-8.567c-32.223-2.266-64.364-4.438-96.665-5.21
			c-31.784-0.76-63.587-1.01-95.328-2.988c-15.567-0.971-31.125-2.392-46.57-4.589c-12.442-1.771-24.733-4.379-37.133-6.397
			c-19.531-3.179-39.398-5.491-58.291-11.629c-16.047-5.214-29.794-14.38-36.843-30.139c-4.175-9.332-4.781-20.21-4.845-30.265
			c-0.063-9.902,1.469-20.058,5.521-29.156c8.302-18.638,25.548-30.503,42.936-39.888c23.181-12.513,48.961-20.585,74.486-26.72
			c54.089-13,110.305-15.106,165.708-13.941c45.884,0.966,91.65,4.623,137.416,7.822C526.326,69.287,526.26,54.282,516.667,53.611
			L516.667,53.611z"/>
	</g>
</g>
</svg>
